<svg width="629" height="139" viewBox="0 0 629 139" fill="none" xmlns="http://www.w3.org/2000/svg">
<path d="M17.7734 137H2.88086V2.47852H20.0928L61.8408 98.5479L100.293 2.47852H117.261V137H101.758V56.7998L102.124 32.874H101.758L93.0908 56.9219L69.2871 116.858H51.5869L25.708 56.6777L17.7734 34.8271H17.2852L17.7734 56.6777V137ZM210.352 137H192.773V2.47852H234.399C244.653 2.47852 252.344 3.94336 257.471 6.87305C262.598 9.80273 266.667 14.0752 269.678 19.6904C272.689 25.3057 274.194 31.3685 274.194 37.8789C274.194 43.0872 273.177 48.1328 271.143 53.0156C269.108 57.8171 266.26 62.1709 262.598 66.0771C258.936 69.9834 253.28 73.4421 245.63 76.4531C248.478 78.0807 250.635 79.627 252.1 81.0918C253.564 82.5566 255.314 84.9167 257.349 88.1719C259.465 91.3457 261.296 94.3568 262.842 97.2051L284.204 137H264.185L245.63 101.6C241.073 93.0547 235.213 85.5677 228.052 79.1387H210.352V137ZM210.352 65.7109H227.441C234.603 65.7109 240.055 64.6123 243.799 62.415C247.542 60.2178 250.513 57.0033 252.71 52.7715C254.907 48.4583 256.006 43.901 256.006 39.0996C256.006 34.8678 255.111 31.0837 253.32 27.7471C251.611 24.4105 249.089 21.6436 245.752 19.4463C242.415 17.1676 236.719 16.0283 228.662 16.0283H210.352V65.7109ZM368.018 137H350.439V2.47852H368.018V62.415H429.785V2.47852H447.241V137H429.785V75.8428H368.018V137ZM522.998 137V2.47852H560.229C578.296 2.47852 591.52 4.96061 599.902 9.9248C608.285 14.8076 614.836 22.2946 619.556 32.3857C624.276 42.4769 626.636 54.7653 626.636 69.251C626.636 82.8415 624.479 94.6416 620.166 104.651C615.934 114.58 609.505 122.474 600.879 128.333C592.334 134.111 579.598 137 562.671 137H522.998ZM540.576 122.229H561.206C573.494 122.229 582.772 120.439 589.038 116.858C595.304 113.196 600.106 107.5 603.442 99.7686C606.779 92.0374 608.447 82.3532 608.447 70.7158C608.447 58.9971 606.901 48.9466 603.809 40.5645C600.798 32.1823 596.2 25.9974 590.015 22.0098C583.83 18.0221 574.064 16.0283 560.718 16.0283H540.576V122.229Z" fill="black"/>
<path d="M17.7734 137V139H19.7734V137H17.7734ZM2.88086 137H0.880859V139H2.88086V137ZM2.88086 2.47852V0.478516H0.880859V2.47852H2.88086ZM20.0928 2.47852L21.9271 1.6814L21.4043 0.478516H20.0928V2.47852ZM61.8408 98.5479L60.0065 99.345L61.9167 103.741L63.6976 99.291L61.8408 98.5479ZM100.293 2.47852V0.478516H98.9392L98.4362 1.73533L100.293 2.47852ZM117.261 2.47852H119.261V0.478516H117.261V2.47852ZM117.261 137V139H119.261V137H117.261ZM101.758 137H99.7578V139H101.758V137ZM101.758 56.7998L99.758 56.7692L99.7578 56.7845V56.7998H101.758ZM102.124 32.874L104.124 32.9046L104.155 30.874H102.124V32.874ZM101.758 32.874V30.874H100.353L99.8763 32.1959L101.758 32.874ZM93.0908 56.9219L94.9496 57.6601L94.9615 57.6302L94.9724 57.6L93.0908 56.9219ZM69.2871 116.858V118.858H70.6448L71.1459 117.597L69.2871 116.858ZM51.5869 116.858L49.7496 117.648L50.2699 118.858H51.5869V116.858ZM25.708 56.6777L23.8281 57.3604L23.8478 57.4147L23.8707 57.4678L25.708 56.6777ZM17.7734 34.8271L19.6533 34.1445L19.175 32.8271H17.7734V34.8271ZM17.2852 34.8271V32.8271H15.24L15.2857 34.8718L17.2852 34.8271ZM17.7734 56.6777H19.7734V56.6554L19.7729 56.6331L17.7734 56.6777ZM17.7734 135H2.88086V139H17.7734V135ZM4.88086 137V2.47852H0.880859V137H4.88086ZM2.88086 4.47852H20.0928V0.478516H2.88086V4.47852ZM18.2585 3.27563L60.0065 99.345L63.6751 97.7507L21.9271 1.6814L18.2585 3.27563ZM63.6976 99.291L102.15 3.2217L98.4362 1.73533L59.984 97.8047L63.6976 99.291ZM100.293 4.47852H117.261V0.478516H100.293V4.47852ZM115.261 2.47852V137H119.261V2.47852H115.261ZM117.261 135H101.758V139H117.261V135ZM103.758 137V56.7998H99.7578V137H103.758ZM103.758 56.8304L104.124 32.9046L100.124 32.8434L99.758 56.7692L103.758 56.8304ZM102.124 30.874H101.758V34.874H102.124V30.874ZM99.8763 32.1959L91.2093 56.2438L94.9724 57.6L103.639 33.5521L99.8763 32.1959ZM91.232 56.1837L67.4283 116.12L71.1459 117.597L94.9496 57.6601L91.232 56.1837ZM69.2871 114.858H51.5869V118.858H69.2871V114.858ZM53.4242 116.068L27.5453 55.8876L23.8707 57.4678L49.7496 117.648L53.4242 116.068ZM27.5879 55.9951L19.6533 34.1445L15.8935 35.5098L23.8281 57.3604L27.5879 55.9951ZM17.7734 32.8271H17.2852V36.8271H17.7734V32.8271ZM15.2857 34.8718L15.7739 56.7224L19.7729 56.6331L19.2847 34.7825L15.2857 34.8718ZM15.7734 56.6777V137H19.7734V56.6777H15.7734ZM210.352 137V139H212.352V137H210.352ZM192.773 137H190.773V139H192.773V137ZM192.773 2.47852V0.478516H190.773V2.47852H192.773ZM271.143 53.0156L272.984 53.7959L272.989 53.7849L271.143 53.0156ZM245.63 76.4531L244.897 74.5921L241.016 76.12L244.638 78.1896L245.63 76.4531ZM257.349 88.1719L255.653 89.2319L255.668 89.2568L255.685 89.2813L257.349 88.1719ZM262.842 97.2051L264.604 96.2591L264.6 96.2509L262.842 97.2051ZM284.204 137V139H287.548L285.966 136.054L284.204 137ZM264.185 137L262.413 137.928L262.975 139H264.185V137ZM245.63 101.6L247.401 100.671L247.398 100.665L247.395 100.658L245.63 101.6ZM228.052 79.1387L229.388 77.6504L228.818 77.1387H228.052V79.1387ZM210.352 79.1387V77.1387H208.352V79.1387H210.352ZM210.352 65.7109H208.352V67.7109H210.352V65.7109ZM243.799 62.415L244.811 64.1399L243.799 62.415ZM252.71 52.7715L254.485 53.6931L254.489 53.6862L254.492 53.6793L252.71 52.7715ZM253.32 27.7471L251.54 28.6588L251.549 28.6758L251.558 28.6927L253.32 27.7471ZM245.752 19.4463L244.624 21.0979L244.638 21.1074L244.652 21.1166L245.752 19.4463ZM210.352 16.0283V14.0283H208.352V16.0283H210.352ZM210.352 135H192.773V139H210.352V135ZM194.773 137V2.47852H190.773V137H194.773ZM192.773 4.47852H234.399V0.478516H192.773V4.47852ZM234.399 4.47852C244.528 4.47852 251.801 5.937 256.478 8.60953L258.463 5.13656C252.886 1.94972 244.778 0.478516 234.399 0.478516V4.47852ZM256.478 8.60953C261.254 11.3382 265.067 15.324 267.915 20.6356L271.44 18.7453C268.266 12.8264 263.942 8.26725 258.463 5.13656L256.478 8.60953ZM267.915 20.6356C270.767 25.9536 272.194 31.6908 272.194 37.8789H276.194C276.194 31.0462 274.611 24.6577 271.44 18.7453L267.915 20.6356ZM272.194 37.8789C272.194 42.819 271.231 47.6034 269.296 52.2464L272.989 53.7849C275.123 48.6622 276.194 43.3555 276.194 37.8789H272.194ZM269.301 52.2353C267.361 56.8141 264.644 60.9702 261.139 64.7093L264.057 67.445C267.876 63.3716 270.855 58.82 272.984 53.7959L269.301 52.2353ZM261.139 64.7093C257.758 68.3147 252.405 71.637 244.897 74.5921L246.362 78.3141C254.154 75.2471 260.113 71.6521 264.057 67.445L261.139 64.7093ZM244.638 78.1896C247.41 79.7739 249.397 81.2179 250.685 82.506L253.514 79.6776C251.872 78.036 249.546 76.3875 246.622 74.7166L244.638 78.1896ZM250.685 82.506C251.988 83.8089 253.643 86.016 255.653 89.2319L259.045 87.1119C256.986 83.8173 255.141 81.3044 253.514 79.6776L250.685 82.506ZM255.685 89.2813C257.773 92.4133 259.571 95.3724 261.084 98.1593L264.6 96.2509C263.02 93.3412 261.156 90.2781 259.013 87.0625L255.685 89.2813ZM261.08 98.151L282.442 137.946L285.966 136.054L264.604 96.2591L261.08 98.151ZM284.204 135H264.185V139H284.204V135ZM265.956 136.072L247.401 100.671L243.858 102.528L262.413 137.928L265.956 136.072ZM247.395 100.658C242.728 91.9088 236.724 84.2364 229.388 77.6504L226.716 80.6269C233.702 86.899 239.417 94.2005 243.865 102.541L247.395 100.658ZM228.052 77.1387H210.352V81.1387H228.052V77.1387ZM208.352 79.1387V137H212.352V79.1387H208.352ZM210.352 67.7109H227.441V63.7109H210.352V67.7109ZM227.441 67.7109C234.753 67.7109 240.622 66.599 244.811 64.1399L242.786 60.6902C239.489 62.6257 234.453 63.7109 227.441 63.7109V67.7109ZM244.811 64.1399C248.911 61.7334 252.132 58.225 254.485 53.6931L250.935 51.8499C248.894 55.7815 246.174 58.7021 242.786 60.6902L244.811 64.1399ZM254.492 53.6793C256.831 49.0874 258.006 44.2193 258.006 39.0996H254.006C254.006 43.5828 252.983 47.8293 250.928 51.8636L254.492 53.6793ZM258.006 39.0996C258.006 34.5773 257.047 30.4617 255.083 26.8014L251.558 28.6927C253.175 31.7056 254.006 35.1584 254.006 39.0996H258.006ZM255.1 26.8353C253.224 23.1712 250.457 20.1502 246.852 17.7759L244.652 21.1166C247.72 23.1369 249.999 25.6498 251.54 28.6588L255.1 26.8353ZM246.88 17.7947C243.015 15.1551 236.789 14.0283 228.662 14.0283V18.0283C236.648 18.0283 241.816 19.1802 244.624 21.0979L246.88 17.7947ZM228.662 14.0283H210.352V18.0283H228.662V14.0283ZM208.352 16.0283V65.7109H212.352V16.0283H208.352ZM368.018 137V139H370.018V137H368.018ZM350.439 137H348.439V139H350.439V137ZM350.439 2.47852V0.478516H348.439V2.47852H350.439ZM368.018 2.47852H370.018V0.478516H368.018V2.47852ZM368.018 62.415H366.018V64.415H368.018V62.415ZM429.785 62.415V64.415H431.785V62.415H429.785ZM429.785 2.47852V0.478516H427.785V2.47852H429.785ZM447.241 2.47852H449.241V0.478516H447.241V2.47852ZM447.241 137V139H449.241V137H447.241ZM429.785 137H427.785V139H429.785V137ZM429.785 75.8428H431.785V73.8428H429.785V75.8428ZM368.018 75.8428V73.8428H366.018V75.8428H368.018ZM368.018 135H350.439V139H368.018V135ZM352.439 137V2.47852H348.439V137H352.439ZM350.439 4.47852H368.018V0.478516H350.439V4.47852ZM366.018 2.47852V62.415H370.018V2.47852H366.018ZM368.018 64.415H429.785V60.415H368.018V64.415ZM431.785 62.415V2.47852H427.785V62.415H431.785ZM429.785 4.47852H447.241V0.478516H429.785V4.47852ZM445.241 2.47852V137H449.241V2.47852H445.241ZM447.241 135H429.785V139H447.241V135ZM431.785 137V75.8428H427.785V137H431.785ZM429.785 73.8428H368.018V77.8428H429.785V73.8428ZM366.018 75.8428V137H370.018V75.8428H366.018ZM522.998 137H520.998V139H522.998V137ZM522.998 2.47852V0.478516H520.998V2.47852H522.998ZM599.902 9.9248L598.883 11.6457L598.889 11.6493L598.896 11.653L599.902 9.9248ZM620.166 104.651L618.329 103.86L618.326 103.867L620.166 104.651ZM600.879 128.333L601.999 129.99L602.003 129.987L600.879 128.333ZM540.576 122.229H538.576V124.229H540.576V122.229ZM589.038 116.858L590.03 118.595L590.039 118.59L590.047 118.585L589.038 116.858ZM603.442 99.7686L601.606 98.9761L603.442 99.7686ZM603.809 40.5645L601.926 41.2406L601.929 41.2487L601.932 41.2567L603.809 40.5645ZM540.576 16.0283V14.0283H538.576V16.0283H540.576ZM524.998 137V2.47852H520.998V137H524.998ZM522.998 4.47852H560.229V0.478516H522.998V4.47852ZM560.229 4.47852C578.197 4.47852 590.975 6.96213 598.883 11.6457L600.921 8.20395C592.065 2.95909 578.395 0.478516 560.229 0.478516V4.47852ZM598.896 11.653C606.876 16.3016 613.17 23.4541 617.744 33.2331L621.367 31.5384C616.501 21.1351 609.693 13.3136 600.909 8.19664L598.896 11.653ZM617.744 33.2331C622.309 42.9919 624.636 54.9737 624.636 69.251H628.636C628.636 54.5569 626.243 41.9619 621.367 31.5384L617.744 33.2331ZM624.636 69.251C624.636 82.6344 622.512 94.1537 618.329 103.86L622.003 105.443C626.447 95.1295 628.636 83.0486 628.636 69.251H624.636ZM618.326 103.867C614.239 113.456 608.053 121.042 599.755 126.679L602.003 129.987C610.958 123.905 617.629 115.704 622.006 105.436L618.326 103.867ZM599.759 126.676C591.695 132.129 579.431 135 562.671 135V139C579.765 139 592.973 136.093 601.999 129.99L599.759 126.676ZM562.671 135H522.998V139H562.671V135ZM540.576 124.229H561.206V120.229H540.576V124.229ZM561.206 124.229C573.628 124.229 583.318 122.43 590.03 118.595L588.046 115.122C582.225 118.448 573.361 120.229 561.206 120.229V124.229ZM590.047 118.585C596.739 114.675 601.801 108.619 605.279 100.561L601.606 98.9761C598.41 106.381 593.87 111.718 588.029 115.132L590.047 118.585ZM605.279 100.561C608.756 92.5035 610.447 82.5284 610.447 70.7158H606.447C606.447 82.178 604.802 91.5713 601.606 98.9761L605.279 100.561ZM610.447 70.7158C610.447 58.8304 608.88 48.533 605.685 39.8722L601.932 41.2567C604.922 49.3602 606.447 59.1637 606.447 70.7158H610.447ZM605.691 39.8883C602.563 31.182 597.725 24.6014 591.098 20.3288L588.931 23.6907C594.674 27.3934 599.032 33.1826 601.926 41.2406L605.691 39.8883ZM591.098 20.3288C584.421 16.0236 574.179 14.0283 560.718 14.0283V18.0283C573.95 18.0283 583.239 20.0207 588.931 23.6907L591.098 20.3288ZM560.718 14.0283H540.576V18.0283H560.718V14.0283ZM538.576 16.0283V122.229H542.576V16.0283H538.576Z" fill="black"/>
</svg>
