<svg width="36" height="36" viewBox="0 0 36 36" fill="none" xmlns="http://www.w3.org/2000/svg">
<path d="M30.9375 3.9375H5.0625C4.44023 3.9375 3.9375 4.44023 3.9375 5.0625V30.9375C3.9375 31.5598 4.44023 32.0625 5.0625 32.0625H30.9375C31.5598 32.0625 32.0625 31.5598 32.0625 30.9375V5.0625C32.0625 4.44023 31.5598 3.9375 30.9375 3.9375ZM21.041 12.3363H25.9066V13.5211H21.041V12.3363ZM18 22.1062C17.7724 22.5382 17.4474 22.9114 17.0508 23.1961C16.6359 23.4844 16.1754 23.6953 15.6867 23.8184C15.1755 23.9554 14.648 24.0228 14.1188 24.0188H8.29688V12.027H13.957C14.5301 12.027 15.0504 12.0797 15.525 12.1781C15.9961 12.2766 16.3969 12.4453 16.7344 12.6738C17.0684 12.9023 17.332 13.2082 17.5184 13.5879C17.7012 13.9641 17.7961 14.4352 17.7961 14.9941C17.7961 15.5988 17.659 16.098 17.3848 16.5023C17.107 16.9066 16.7063 17.2336 16.1613 17.4902C16.9031 17.7012 17.448 18.0773 17.8066 18.6047C18.1723 19.1391 18.3516 19.7789 18.3516 20.5312C18.3516 21.143 18.2355 21.6668 18 22.1062ZM27.8016 20.25H21.5297C21.5297 20.932 21.7652 21.5859 22.1203 21.9375C22.4789 22.2855 22.9922 22.4613 23.6637 22.4613C24.1488 22.4613 24.5602 22.3383 24.9117 22.0957C25.2598 21.8531 25.4707 21.5965 25.548 21.3293H27.6504C27.3129 22.3734 26.7996 23.1188 26.1035 23.5688C25.4145 24.0188 24.5707 24.2437 23.5898 24.2437C22.9043 24.2437 22.2891 24.1313 21.7371 23.9168C21.2062 23.7094 20.7281 23.393 20.3344 22.9852C19.9461 22.5664 19.6461 22.0738 19.452 21.5367C19.2375 20.9426 19.132 20.3168 19.1391 19.6875C19.1391 19.0371 19.248 18.4324 19.459 17.8699C19.8633 16.7766 20.7035 15.9012 21.7758 15.4477C22.3488 15.2086 22.9641 15.0891 23.5863 15.0961C24.3246 15.0961 24.9645 15.2367 25.5199 15.525C26.0547 15.8003 26.519 16.1948 26.877 16.6781C27.232 17.1598 27.4816 17.7082 27.6398 18.327C27.791 18.9352 27.8438 19.575 27.8016 20.25ZM23.5125 16.8891C23.1328 16.8891 22.8129 16.9559 22.5668 17.0859C22.3207 17.216 22.1168 17.3777 21.9621 17.5641C21.8148 17.744 21.7059 17.9522 21.6422 18.1758C21.5859 18.3621 21.5473 18.552 21.5332 18.7453H25.418C25.3617 18.1371 25.1508 17.6871 24.8695 17.3707C24.5742 17.0578 24.0996 16.8891 23.5125 16.8891ZM14.7762 16.534C15.082 16.3125 15.2297 15.9469 15.2297 15.4441C15.2402 15.2051 15.191 14.9695 15.0855 14.7551C14.9906 14.5828 14.85 14.4387 14.6777 14.3367C14.4991 14.2284 14.3007 14.1567 14.0941 14.1258C13.8691 14.0836 13.6406 14.0625 13.4156 14.066H10.9441V16.868H13.6195C14.0801 16.8715 14.4703 16.759 14.7762 16.534ZM15.191 19.0652C14.8465 18.8016 14.3859 18.6715 13.8129 18.6715H10.9371V21.9762H13.7566C14.0203 21.9762 14.2629 21.9516 14.4984 21.9023C14.734 21.8531 14.9449 21.7687 15.1242 21.6492C15.3035 21.5332 15.4477 21.375 15.5566 21.1711C15.6621 20.9672 15.7148 20.707 15.7148 20.3941C15.7148 19.7719 15.5391 19.3324 15.191 19.0652Z" fill="white"/>
</svg>
