<svg width="40" height="40" viewBox="0 0 40 40" fill="none" xmlns="http://www.w3.org/2000/svg">
<path d="M6.25 6.25V33.75H33.75V6.25H6.25ZM8.75 8.75H31.25V31.25H8.75V8.75ZM20.3125 10C17.6562 10 17.6562 16.8812 17.6562 16.9537C17.6562 17.7537 17.6862 18.515 17.735 19.2188C17.3357 19.0666 16.9123 18.987 16.485 18.9838C13.7537 18.985 12.5 21.2937 12.5 23.75C12.5 26.06 13.8038 28.75 16.7575 28.75C18.1538 28.75 19.3613 27.8575 20.315 26.5237C21.155 27.3787 22.005 27.695 22.6588 27.695C24.7338 27.695 26.1088 24.0675 26.6013 22.5C26.7475 22.0062 26.4788 21.435 25.9763 21.2888C25.8583 21.2513 25.7341 21.2379 25.611 21.2491C25.4878 21.2604 25.3681 21.2962 25.2589 21.3545C25.1498 21.4127 25.0534 21.4922 24.9755 21.5882C24.8975 21.6843 24.8395 21.795 24.805 21.9138C24.2237 23.755 23.14 25.6837 22.6562 25.7812C22.3 25.7812 21.8063 25.4688 21.2888 24.765C22.4763 22.2713 23.0862 19.16 23.0862 17.07C23.0862 11.225 21.5725 10 20.3125 10ZM20.3912 12.0312C20.69 12.475 21.2112 13.8813 21.2112 17.07C21.2112 18.76 20.8 20.7325 20.195 22.4612C19.8 21.1137 19.5312 19.3013 19.5312 16.9525C19.5312 14.7788 19.995 12.725 20.3912 12.0312V12.0312ZM16.1325 20.8987C16.245 20.8737 16.3575 20.8987 16.4838 20.8987C17.2863 20.8987 17.8912 21.4838 17.8912 21.4838C17.9287 21.5338 17.9825 21.6025 18.0463 21.64C18.2552 22.7558 18.624 23.8357 19.1412 24.8463C18.4225 26.0575 17.5825 26.8388 16.7575 26.8388C14.62 26.8388 14.4138 24.9263 14.4138 24.1013C14.4138 23.9738 14.4425 21.2362 16.1325 20.8987Z" fill="black"/>
</svg>
