<svg width="27" height="27" viewBox="0 0 27 27" fill="none" xmlns="http://www.w3.org/2000/svg">
<path d="M25.9998 13.4999C26.0019 15.1463 25.6777 16.7769 25.046 18.2973C24.4142 19.8177 23.4875 21.1978 22.3192 22.358C21.1605 23.5146 19.7852 24.4316 18.272 25.0565C16.7587 25.6814 15.1371 26.0019 13.4999 25.9998C6.59621 25.9998 1.00001 20.4036 1.00001 13.4999C0.995641 10.2948 2.2268 7.21131 4.43748 4.8906C5.60394 3.65974 7.00928 2.67984 8.56753 2.01087C10.1258 1.3419 11.8041 0.997927 13.4999 1.00001C15.1371 0.99789 16.7587 1.31843 18.272 1.94332C19.7852 2.56821 21.1605 3.48519 22.3192 4.64185C23.4875 5.80199 24.4142 7.18213 25.046 8.70254C25.6777 10.2229 26.0019 11.8535 25.9998 13.4999V13.4999Z" stroke="black" stroke-width="1.5" stroke-linecap="round" stroke-linejoin="round"/>
<path d="M25.9995 13.5002C24.1758 13.5002 19.1446 12.8127 14.6415 14.7896C9.74964 16.9377 6.2078 20.2695 4.66406 22.342" stroke="black" stroke-width="1.5" stroke-linecap="round" stroke-linejoin="round"/>
<path d="M8.8125 1.90894C10.7687 3.71455 15.0374 8.31201 16.6249 12.8751C18.2124 17.4388 18.7999 23.05 19.1624 24.6469" stroke="black" stroke-width="1.5" stroke-linecap="round" stroke-linejoin="round"/>
<path d="M1.09619 11.9376C3.45742 12.0801 9.70799 12.2083 13.708 10.5001C17.7079 8.79203 21.1498 5.65019 22.3304 4.65332" stroke="black" stroke-width="1.5" stroke-linecap="round" stroke-linejoin="round"/>
<path d="M1.9375 18.2583C3.03894 20.9245 5.02541 23.1297 7.56245 24.5026" stroke="black" stroke-width="1.5" stroke-linecap="round" stroke-linejoin="round"/>
<path d="M1.00001 13.5002C0.995641 10.2951 2.22679 7.21157 4.43748 4.89087" stroke="black" stroke-width="1.5" stroke-linecap="round" stroke-linejoin="round"/>
<path d="M13.4997 1.00025C11.8039 0.99817 10.1255 1.34214 8.5673 2.01111C7.00906 2.68008 5.60371 3.65998 4.43726 4.89085" stroke="black" stroke-width="1.5" stroke-linecap="round" stroke-linejoin="round"/>
<path d="M18.5 2.04016C19.9235 2.66299 21.2187 3.5453 22.3193 4.64201C23.4876 5.80214 24.4144 7.18229 25.0461 8.7027C25.6779 10.2231 26.002 11.8536 25.9999 13.5001C25.9999 15.0394 25.7218 16.5132 25.2124 17.875" stroke="black" stroke-width="1.5" stroke-linecap="round" stroke-linejoin="round"/>
<path d="M13.5 26.0001C15.1372 26.0022 16.7588 25.6817 18.272 25.0568C19.7853 24.4319 21.1606 23.5149 22.3193 22.3583" stroke="black" stroke-width="1.5" stroke-linecap="round" stroke-linejoin="round"/>
</svg>
