<svg width="534" height="62" viewBox="0 0 534 62" fill="none" xmlns="http://www.w3.org/2000/svg">
<path d="M75.7549 30.8472V25.94H60.0259V30.8472H75.7549ZM105.363 19.5703C102.113 19.5703 100.131 20.6428 98.9606 22.2677H98.7331V14.3382H93.7934V37.8018H98.7331V29.0273C98.7331 26.5574 99.6755 23.8276 103.933 23.8276C108.678 23.8276 108.678 27.2724 108.678 28.7023V37.8018H113.585V28.7023C113.585 26.0375 113.097 19.5703 105.363 19.5703ZM130.042 22.2677C128.807 20.6428 126.76 19.5703 123.38 19.5703C115.678 19.5703 114.866 26.0375 114.866 28.7023C114.866 31.1397 115.711 37.8018 123.348 37.8018C126.792 37.8018 128.872 36.8593 130.107 35.2669H130.27V37.8018H135.209V19.5703H130.27V22.2677H130.042ZM124.81 33.577C120.098 33.577 119.578 30.0022 119.578 28.7023C119.578 27.2724 120.065 23.8276 124.81 23.8276C129.067 23.8276 129.945 26.2325 129.945 28.7023C129.945 31.4646 129.067 33.577 124.81 33.577ZM147.548 19.5703C144.395 19.5703 143.29 20.5128 142.251 22.2677H141.958V19.5703H137.018V37.8018H141.958V29.6447C141.958 27.1749 143.03 24.3151 146.703 24.3151C148.263 24.3151 149.53 24.575 149.985 24.705L150.765 20.0578C149.92 19.8628 148.848 19.5703 147.548 19.5703ZM156.366 37.8018V19.7003H151.458V37.8018H156.366ZM156.366 18.4004V13.9807H151.458V18.4004H156.366ZM173.275 14.3382V22.2677H172.982C171.747 20.6428 169.7 19.5703 166.32 19.5703C158.618 19.5703 157.806 26.0375 157.806 28.7023C157.806 31.1397 158.651 37.8018 166.288 37.8018C169.732 37.8018 171.812 36.8593 173.047 35.2669H173.275V37.8018H178.214V14.3382H173.275ZM167.75 33.577C163.038 33.577 162.518 30.0022 162.518 28.7023C162.518 27.2724 163.005 23.8276 167.75 23.8276C172.007 23.8276 172.885 26.2325 172.885 28.7023C172.885 31.4646 172.007 33.577 167.75 33.577ZM199.008 29.8397H199.203C199.463 27.3374 199.138 23.5026 195.629 21.0978V21.1303C194.101 20.0578 192.021 19.4079 189.454 19.4079C183.312 19.4079 179.672 22.6577 179.672 28.6048C179.672 34.6819 183.214 37.8018 189.454 37.8018C195.434 37.8018 198.618 35.3969 199.106 31.4646H194.329C193.874 32.6671 192.411 33.4795 189.454 33.4795C186.269 33.4795 184.807 32.2771 184.449 29.8397H199.008ZM189.454 23.7301C192.964 23.7301 193.874 25.225 194.264 26.5899H184.644C185.229 24.7375 186.724 23.7301 189.454 23.7301ZM220.05 29.8397H220.245C220.505 27.3374 220.18 23.5026 216.67 21.0978V21.1303C215.142 20.0578 213.063 19.4079 210.495 19.4079C204.353 19.4079 200.713 22.6577 200.713 28.6048C200.713 34.6819 204.256 37.8018 210.495 37.8018C216.475 37.8018 219.66 35.3969 220.147 31.4646H215.37C214.915 32.6671 213.453 33.4795 210.495 33.4795C207.31 33.4795 205.848 32.2771 205.49 29.8397H220.05ZM210.495 23.7301C214.005 23.7301 214.915 25.225 215.305 26.5899H205.685C206.27 24.7375 207.765 23.7301 210.495 23.7301ZM233.649 19.6028C230.269 19.6028 228.189 20.6753 226.954 22.2677H226.694V19.6028H221.754V44.7563H226.694V35.2994H226.922C228.157 36.8918 230.236 37.8668 233.649 37.8668C241.318 37.8668 242.163 31.1722 242.163 28.7348C242.163 26.07 241.351 19.6028 233.649 19.6028ZM232.219 33.6095C227.929 33.6095 227.052 31.4971 227.052 28.7348C227.052 26.2649 227.929 23.8601 232.219 23.8601C236.931 23.8601 237.451 27.3049 237.451 28.7348C237.451 30.0347 236.931 33.6095 232.219 33.6095ZM262.365 22.3002C262.365 19.1804 260.187 14.9231 253.655 14.9231C246.408 14.9231 244.426 20.1553 244.296 23.3401C244.296 23.3401 248.195 23.3401 249.3 23.3401C249.43 21.7802 249.82 19.5703 253.33 19.5703C256.807 19.5703 257.36 21.0003 257.36 22.3977C257.36 27.4674 249.463 25.29 245.141 32.1146C243.711 34.3895 243.938 37.8018 243.938 37.8018H262.04V33.2845H250.243C251.413 29.7097 262.365 30.2297 262.365 22.3002ZM274.911 14.7281C268.834 14.7281 264.544 18.7904 264.544 26.2649C264.544 33.8695 268.834 37.8018 274.911 37.8018C281.021 37.8018 285.311 33.7395 285.311 26.2649C285.311 18.7904 281.021 14.7281 274.911 14.7281ZM274.911 32.992C271.174 32.992 269.516 30.9447 269.516 26.2649C269.516 21.6177 271.174 19.5703 274.911 19.5703C278.681 19.5703 280.338 21.6827 280.338 26.2649C280.338 30.7822 278.681 32.992 274.911 32.992ZM297.825 14.7281C291.748 14.7281 287.458 18.7904 287.458 26.2649C287.458 33.8695 291.748 37.8018 297.825 37.8018C303.934 37.8018 308.224 33.7395 308.224 26.2649C308.224 18.7904 303.934 14.7281 297.825 14.7281ZM297.825 32.992C294.088 32.992 292.43 30.9447 292.43 26.2649C292.43 21.6177 294.088 19.5703 297.825 19.5703C301.595 19.5703 303.252 21.6827 303.252 26.2649C303.252 30.7822 301.595 32.992 297.825 32.992ZM327.519 22.3002C327.519 19.1804 325.342 14.9231 318.81 14.9231C311.563 14.9231 309.58 20.1553 309.45 23.3401C309.45 23.3401 313.35 23.3401 314.455 23.3401C314.585 21.7802 314.975 19.5703 318.485 19.5703C321.962 19.5703 322.515 21.0003 322.515 22.3977C322.515 27.4674 314.618 25.29 310.295 32.1146C308.866 34.3895 309.093 37.8018 309.093 37.8018H327.194V33.2845H315.398C316.568 29.7097 327.519 30.2297 327.519 22.3002ZM342.893 19.4404C341.073 19.4404 329.309 19.7328 329.309 31.7571C329.309 43.5864 338.474 44.4314 341.983 44.3014C346.143 44.1714 347.865 42.8715 347.865 42.8715C347.865 42.8715 346.728 40.7916 345.883 39.5567C344.193 40.4016 342.016 40.3366 342.016 40.3366C335.809 40.3366 333.339 36.6968 333.339 31.9846C333.339 27.2724 336.296 23.3726 342.731 23.3726C349.165 23.3726 352.415 26.3299 352.415 31.1072C352.415 35.8844 349.62 37.3143 349.62 33.9995V25.9725H346.371V27.7274H346.208C345.396 26.6549 344.031 25.9725 341.821 25.9725C336.719 25.9725 336.199 30.2297 336.199 31.9846C336.199 33.6095 336.751 37.9967 341.821 37.9967C344.063 37.9967 345.428 37.3793 346.241 36.3393H346.371V36.8918C346.371 38.0617 346.923 39.8816 350.4 39.8816C353.553 39.8816 356.152 36.2419 356.152 30.5222C356.152 19.1804 344.746 19.4404 342.893 19.4404ZM342.763 35.2019C339.643 35.2019 339.286 32.8621 339.286 31.9846C339.286 31.0422 339.643 28.7673 342.763 28.7673C345.591 28.7673 346.143 30.3597 346.143 31.9846C346.143 33.8045 345.591 35.2019 342.763 35.2019ZM373.373 19.7653V22.4627H373.08C371.845 20.8378 369.798 19.7653 366.418 19.7653C358.716 19.7653 357.904 26.2325 357.904 28.8973C357.904 31.3671 358.749 38.0292 366.386 38.0292C369.83 38.0292 371.91 37.0543 373.145 35.4944H373.373V36.7943C373.373 40.1416 371.878 42.319 368.53 42.319C364.663 42.319 363.818 40.4341 363.688 39.4592C362.876 39.4592 360.081 39.4592 358.781 39.4592C358.781 42.1565 360.373 46.5762 368.563 46.5762C377.63 46.5762 378.312 39.8166 378.312 36.0469V19.7653H373.373ZM367.848 33.772C363.136 33.772 362.616 30.2297 362.616 28.8973C362.616 27.4674 363.103 24.0226 367.848 24.0226C372.105 24.0226 372.983 26.4274 372.983 28.8973C372.983 31.6596 372.105 33.772 367.848 33.772ZM404.883 19.5703C400.334 19.5703 398.871 20.6428 397.669 22.2677H397.441C396.401 20.7403 394.549 19.5703 391.267 19.5703C388.017 19.5703 386.392 20.6428 385.222 22.2677H384.994V19.7328H380.087V37.8018H384.994V29.0273C384.994 26.5574 385.287 23.8276 389.544 23.8276C394.029 23.8276 393.964 27.2724 393.964 28.7023V37.8018H398.871V28.9298L398.904 29.0273C398.904 26.5574 399.196 23.8276 403.453 23.8276C407.938 23.8276 407.873 27.2724 407.873 28.7023V37.8018H412.813V28.7023C412.78 26.0375 412.585 19.5703 404.883 19.5703ZM429.253 22.2677C428.018 20.6428 425.971 19.5703 422.591 19.5703C414.889 19.5703 414.076 26.0375 414.076 28.7023C414.076 31.1397 414.921 37.8018 422.558 37.8018C426.003 37.8018 428.083 36.8593 429.318 35.2669H429.48V37.8018H434.42V19.5703H429.48V22.2677H429.253ZM424.021 33.577C419.308 33.577 418.788 30.0022 418.788 28.7023C418.788 27.2724 419.276 23.8276 424.021 23.8276C428.278 23.8276 429.155 26.2325 429.155 28.7023C429.155 31.4646 428.278 33.577 424.021 33.577ZM441.136 37.8018V19.7003H436.229V37.8018H441.136ZM441.136 18.4004V13.9807H436.229V18.4004H441.136ZM447.959 37.8018V14.4357H443.052V37.8018H447.959ZM452.609 37.8018C454.234 37.8018 455.534 36.5018 455.534 34.9094C455.534 33.2845 454.234 31.9846 452.609 31.9846C451.017 31.9846 449.717 33.2845 449.717 34.9094C449.717 36.5018 451.017 37.8018 452.609 37.8018ZM471.665 30.9772C471.308 32.2446 470.17 33.382 467.051 33.382C463.833 33.382 462.143 31.9196 462.143 28.6698C462.143 25.5825 463.833 23.9901 467.051 23.9901C470.073 23.9901 471.275 25.03 471.698 26.3949H476.54C476.118 22.0727 472.283 19.5379 467.051 19.5379C461.688 19.5379 457.334 22.7877 457.334 28.6698C457.334 34.7144 461.688 37.8018 467.051 37.8018C472.283 37.8018 476.15 35.3644 476.54 30.9772H471.665ZM487.435 19.2454C481.911 19.2454 477.296 22.2677 477.296 28.5398C477.296 34.8444 481.911 37.8018 487.435 37.8018C492.992 37.8018 497.607 34.9419 497.607 28.5398C497.607 22.2027 492.992 19.2454 487.435 19.2454ZM487.435 33.317C484.348 33.317 482.138 31.9521 482.138 28.5398C482.138 25.095 484.348 23.7626 487.435 23.7626C490.555 23.7626 492.765 25.16 492.765 28.5398C492.765 31.8221 490.555 33.317 487.435 33.317ZM523.577 19.5703C519.028 19.5703 517.565 20.6428 516.363 22.2677H516.135C515.095 20.7403 513.243 19.5703 509.961 19.5703C506.711 19.5703 505.086 20.6428 503.916 22.2677H503.689V19.7328H498.781V37.8018H503.689V29.0273C503.689 26.5574 503.981 23.8276 508.238 23.8276C512.723 23.8276 512.658 27.2724 512.658 28.7023V37.8018H517.565V28.9298L517.598 29.0273C517.598 26.5574 517.89 23.8276 522.147 23.8276C526.632 23.8276 526.567 27.2724 526.567 28.7023V37.8018H531.507V28.7023C531.474 26.0375 531.279 19.5703 523.577 19.5703Z" fill="white"/>
<path fill-rule="evenodd" clip-rule="evenodd" d="M4.05469 13.1155L5.62035 11.5498H46.3275L47.8932 13.1155V41.2974L46.3275 42.863H5.62035L4.05469 41.2974V13.1155ZM7.18601 16.3564V39.7317H44.7619V16.3595L26.9447 30.0246H25.0345L7.18601 16.3564ZM41.7245 14.6811H10.2234L25.9739 26.7962L41.7245 14.6811Z" fill="white"/>
</svg>
