<svg width="27" height="27" viewBox="0 0 27 27" fill="none" xmlns="http://www.w3.org/2000/svg">
<path fill-rule="evenodd" clip-rule="evenodd" d="M12.0229 0.00411747C12.3097 0.00366851 12.6183 0.003807 12.9513 0.00395644L13.5002 0.00411747C17.8971 0.00411747 18.4182 0.0199011 20.1545 0.0988194C21.7602 0.172248 22.6316 0.44057 23.2121 0.666002C23.9806 0.964519 24.5285 1.32137 25.1045 1.89781C25.6809 2.47426 26.0377 3.02326 26.3368 3.79185C26.5622 4.37173 26.8309 5.24326 26.9039 6.84908C26.9828 8.58528 27 9.10683 27 13.5022C27 17.8976 26.9828 18.4192 26.9039 20.1554C26.8305 21.7612 26.5622 22.6327 26.3368 23.2126C26.0383 23.9812 25.6809 24.5285 25.1045 25.1046C24.5281 25.681 23.9809 26.0379 23.2121 26.3364C22.6323 26.5629 21.7602 26.8305 20.1545 26.9039C18.4186 26.9828 17.8971 27 13.5002 27C9.10292 27 8.58179 26.9828 6.8458 26.9039C5.24019 26.8298 4.36877 26.5615 3.78794 26.3361C3.01944 26.0375 2.47051 25.6807 1.89414 25.1042C1.31777 24.5278 0.960965 23.9802 0.6618 23.2112C0.436397 22.6314 0.167766 21.7598 0.0946899 20.154C0.0157817 18.4178 0 17.8963 0 13.4981C0 9.09996 0.0157817 8.58116 0.0946899 6.84496C0.168109 5.23914 0.436397 4.36761 0.6618 3.78705C0.960279 3.01845 1.31777 2.46946 1.89414 1.89301C2.47051 1.31656 3.01944 0.959715 3.78794 0.660512C4.36843 0.43405 5.24019 0.166415 6.8458 0.0926432C8.36496 0.0240186 8.95368 0.00343123 12.0229 0V0.00411747ZM22.2904 2.73887C21.1994 2.73887 20.3143 3.62309 20.3143 4.71454C20.3143 5.80566 21.1994 6.6909 22.2904 6.6909C23.3814 6.6909 24.2666 5.80566 24.2666 4.71454C24.2666 3.62343 23.3814 2.73818 22.2904 2.73818V2.73887ZM5.0432 13.5055C5.0432 8.83464 8.82977 5.04761 13.5001 5.04761H13.4998C18.1701 5.04761 21.9557 8.83464 21.9557 13.5055C21.9557 18.1765 18.1705 21.9618 13.5001 21.9618C8.82977 21.9618 5.0432 18.1765 5.0432 13.5055Z" fill="black"/>
<path fill-rule="evenodd" clip-rule="evenodd" d="M13.5002 8.01624C16.5316 8.01624 18.9894 10.474 18.9894 13.5062C18.9894 16.538 16.5316 18.9962 13.5002 18.9962C10.4684 18.9962 8.01099 16.538 8.01099 13.5062C8.01099 10.474 10.4684 8.01624 13.5002 8.01624V8.01624Z" fill="black"/>
</svg>
