<svg width="649" height="371" viewBox="0 0 649 371" fill="none" xmlns="http://www.w3.org/2000/svg">
<path d="M81.4424 82.59H67.1134V71.5193H61.1462V98.9997H67.1134V87.9683H81.4424V98.9997H87.4489V71.5193H81.4424V82.59ZM108.289 80.2345C106.797 78.2716 104.324 76.9761 100.241 76.9761C90.9367 76.9761 89.9552 84.7884 89.9552 88.0075C89.9552 90.9519 90.9759 98.9997 100.201 98.9997C104.363 98.9997 106.875 97.8612 108.367 95.9376H108.563V98.9997H114.531V76.9761H108.563V80.2345H108.289ZM101.968 93.8962C96.2757 93.8962 95.6476 89.5778 95.6476 88.0075C95.6476 86.2802 96.2365 82.1189 101.968 82.1189C107.111 82.1189 108.171 85.0239 108.171 88.0075C108.171 91.3444 107.111 93.8962 101.968 93.8962ZM130.22 76.9761C126.412 76.9761 125.078 78.1146 123.821 80.2345H123.468V76.9761H117.501V98.9997H123.468V89.146C123.468 86.1624 124.764 82.7077 129.2 82.7077C131.084 82.7077 132.615 83.0218 133.165 83.1788L134.107 77.565C133.086 77.3294 131.791 76.9761 130.22 76.9761ZM141.658 98.9997V77.1331H135.73V98.9997H141.658ZM141.658 75.5628V70.2238H135.73V75.5628H141.658ZM169.934 71.5193H158.117V98.9997C159.413 98.9997 168.481 98.9997 169.934 98.9997C181.397 98.9997 183.478 90.5985 183.478 85.2987C183.478 79.999 181.554 71.5193 169.934 71.5193ZM169.934 93.5821C167.186 93.5821 165.145 93.5821 164.085 93.5821V76.9761C164.085 76.9761 167.421 76.9761 169.934 76.9761C176.097 76.9761 177.275 82.1974 177.275 85.2987C177.275 88.2431 176.058 93.5821 169.934 93.5821ZM208.944 89.3816H209.179C209.493 86.3587 209.101 81.7263 204.861 78.8212V78.8605C203.016 77.565 200.503 76.7798 197.402 76.7798C189.982 76.7798 185.586 80.7056 185.586 87.8898C185.586 95.231 189.865 98.9997 197.402 98.9997C204.626 98.9997 208.473 96.0946 209.062 91.3444H203.291C202.741 92.797 200.975 93.7784 197.402 93.7784C193.555 93.7784 191.788 92.3259 191.356 89.3816H208.944ZM197.402 82.0011C201.642 82.0011 202.741 83.807 203.212 85.4558H191.592C192.299 83.2181 194.104 82.0011 197.402 82.0011ZM235.147 89.3816H235.382C235.696 86.3587 235.304 81.7263 231.064 78.8212V78.8605C229.219 77.565 226.706 76.7798 223.605 76.7798C216.185 76.7798 211.789 80.7056 211.789 87.8898C211.789 95.231 216.068 98.9997 223.605 98.9997C230.829 98.9997 234.676 96.0946 235.265 91.3444H229.494C228.944 92.797 227.178 93.7784 223.605 93.7784C219.758 93.7784 217.991 92.3259 217.559 89.3816H235.147ZM223.605 82.0011C227.845 82.0011 228.944 83.807 229.415 85.4558H217.795C218.502 83.2181 220.307 82.0011 223.605 82.0011ZM252.36 77.0154C248.277 77.0154 245.765 78.3109 244.273 80.2345H243.959V77.0154H237.992V107.401H243.959V95.9768H244.234C245.725 97.9005 248.238 99.0782 252.36 99.0782C261.625 99.0782 262.645 90.9911 262.645 88.0468C262.645 84.8277 261.664 77.0154 252.36 77.0154ZM250.633 93.9354C245.45 93.9354 244.391 91.3837 244.391 88.0468C244.391 85.0632 245.45 82.1581 250.633 82.1581C256.325 82.1581 256.953 86.3194 256.953 88.0468C256.953 89.6171 256.325 93.9354 250.633 93.9354ZM285.054 98.9997V77.1331H279.126V98.9997H285.054ZM285.054 75.5628V70.2238H279.126V75.5628H285.054ZM298.894 85.6521L298.384 85.6128C294.537 85.0239 293.869 84.4743 293.869 83.4929C293.869 82.8255 294.576 81.6085 297.913 81.6085C301.368 81.6085 302.859 82.5507 302.859 84.278V84.4743H308.944V84.278C308.944 80.9019 307.021 76.8583 297.913 76.8583C289.433 76.8583 287.667 80.5093 287.667 83.5714C287.667 87.9683 291.592 89.3816 297.913 90.206C298.227 90.2452 298.541 90.2845 298.855 90.3237C301.25 90.5985 303.37 90.9126 303.37 92.5614C303.37 94.014 301.093 94.328 298.698 94.328C294.733 94.328 293.32 93.4644 293.32 91.58V91.3837H287.196V91.8155C287.156 92.954 287.156 94.7991 288.687 96.3302C290.454 98.0968 293.869 98.9997 298.855 98.9997C305.607 98.9997 309.533 97.9397 309.533 92.4829C309.533 87.2616 303.88 86.398 298.894 85.6521ZM344.286 80.2345C342.794 78.2716 340.321 76.9761 336.238 76.9761C326.934 76.9761 325.952 84.7884 325.952 88.0075C325.952 90.9519 326.973 98.9997 336.199 98.9997C340.36 98.9997 342.873 97.8612 344.364 95.9376H344.561V98.9997H350.528V76.9761H344.561V80.2345H344.286ZM337.965 93.8962C332.273 93.8962 331.645 89.5778 331.645 88.0075C331.645 86.2802 332.234 82.1189 337.965 82.1189C343.108 82.1189 344.168 85.0239 344.168 88.0075C344.168 91.3444 343.108 93.8962 337.965 93.8962ZM367.121 76.9761C363.156 76.9761 361.153 78.2716 359.74 80.2345H359.465V76.9761H353.498V98.9997H359.465V88.4001C359.465 85.4165 360.211 82.1189 365.393 82.1189C371.086 82.1189 370.732 86.2802 370.732 88.0075V98.9997H376.66V88.0075C376.66 84.7884 376.425 76.9761 367.121 76.9761ZM411.432 80.2345C409.94 78.2716 407.467 76.9761 403.384 76.9761C394.08 76.9761 393.099 84.7884 393.099 88.0075C393.099 90.9519 394.119 98.9997 403.345 98.9997C407.506 98.9997 410.019 97.8612 411.51 95.9376H411.707V98.9997H417.674V76.9761H411.707V80.2345H411.432ZM405.111 93.8962C399.419 93.8962 398.791 89.5778 398.791 88.0075C398.791 86.2802 399.38 82.1189 405.111 82.1189C410.254 82.1189 411.314 85.0239 411.314 88.0075C411.314 91.3444 410.254 93.8962 405.111 93.8962ZM431.423 85.6521L430.913 85.6128C427.065 85.0239 426.398 84.4743 426.398 83.4929C426.398 82.8255 427.105 81.6085 430.442 81.6085C433.896 81.6085 435.388 82.5507 435.388 84.278V84.4743H441.473V84.278C441.473 80.9019 439.549 76.8583 430.442 76.8583C421.962 76.8583 420.195 80.5093 420.195 83.5714C420.195 87.9683 424.121 89.3816 430.442 90.206C430.756 90.2452 431.07 90.2845 431.384 90.3237C433.778 90.5985 435.898 90.9126 435.898 92.5614C435.898 94.014 433.621 94.328 431.227 94.328C427.262 94.328 425.848 93.4644 425.848 91.58V91.3837H419.724V91.8155C419.685 92.954 419.685 94.7991 421.216 96.3302C422.983 98.0968 426.398 98.9997 431.384 98.9997C438.136 98.9997 442.062 97.9397 442.062 92.4829C442.062 87.2616 436.409 86.398 431.423 85.6521ZM459.337 77.0154C455.254 77.0154 452.742 78.3109 451.25 80.2345H450.936V77.0154H444.969V107.401H450.936V95.9768H451.211C452.702 97.9005 455.215 99.0782 459.337 99.0782C468.602 99.0782 469.623 90.9911 469.623 88.0468C469.623 84.8277 468.641 77.0154 459.337 77.0154ZM457.61 93.9354C452.428 93.9354 451.368 91.3837 451.368 88.0468C451.368 85.0632 452.428 82.1581 457.61 82.1581C463.302 82.1581 463.93 86.3194 463.93 88.0468C463.93 89.6171 463.302 93.9354 457.61 93.9354ZM478.096 98.9997V77.1331H472.168V98.9997H478.096ZM478.096 75.5628V70.2238H472.168V75.5628H478.096ZM493.724 76.9761C489.916 76.9761 488.581 78.1146 487.325 80.2345H486.972V76.9761H481.005V98.9997H486.972V89.146C486.972 86.1624 488.267 82.7077 492.703 82.7077C494.588 82.7077 496.119 83.0218 496.668 83.1788L497.611 77.565C496.59 77.3294 495.294 76.9761 493.724 76.9761ZM505.161 98.9997V77.1331H499.233V98.9997H505.161ZM505.161 75.5628V70.2238H499.233V75.5628H505.161ZM521.692 76.9761C517.727 76.9761 515.725 78.2716 514.311 80.2345H514.037V76.9761H508.069V98.9997H514.037V88.4001C514.037 85.4165 514.782 82.1189 519.964 82.1189C525.657 82.1189 525.304 86.2802 525.304 88.0075V98.9997H531.231V88.0075C531.231 84.7884 530.996 76.9761 521.692 76.9761ZM552.077 77.2117V80.47H551.724C550.232 78.5072 547.759 77.2117 543.676 77.2117C534.372 77.2117 533.391 85.0239 533.391 88.2431C533.391 91.2267 534.411 99.2745 543.637 99.2745C547.798 99.2745 550.311 98.0968 551.802 96.2124H552.077V97.7827C552.077 101.826 550.271 104.457 546.228 104.457C541.556 104.457 540.535 102.18 540.378 101.002C539.397 101.002 536.021 101.002 534.451 101.002C534.451 104.26 536.374 109.599 546.267 109.599C557.22 109.599 558.044 101.434 558.044 96.8798V77.2117H552.077ZM545.403 94.1317C539.711 94.1317 539.083 89.8526 539.083 88.2431C539.083 86.5157 539.672 82.3544 545.403 82.3544C550.546 82.3544 551.606 85.2595 551.606 88.2431C551.606 91.58 550.546 94.1317 545.403 94.1317ZM119.296 132.652C119.296 135.636 119.414 140.543 113.094 140.543C106.852 140.543 106.695 136.774 106.695 132.652V118.519H100.727V133.319C100.727 137.559 100.688 146 113.133 146C125.538 146 125.538 137.088 125.538 133.359C125.538 129.59 125.538 118.519 125.538 118.519H119.296C119.296 118.519 119.296 129.668 119.296 132.652ZM134.431 146V118.519H128.464V146H134.431ZM146.838 117.734L137.377 146H143.501L152.962 117.734H146.838ZM174.481 132.652C174.481 135.636 174.599 140.543 168.278 140.543C162.036 140.543 161.879 136.774 161.879 132.652V118.519H155.912V133.319C155.912 137.559 155.873 146 168.318 146C180.723 146 180.723 137.088 180.723 133.359C180.723 129.59 180.723 118.519 180.723 118.519H174.481C174.481 118.519 174.481 129.668 174.481 132.652ZM202.589 132.299L212.325 118.559H204.827L197.918 128.53H197.25L190.341 118.559H182.882L192.579 132.299L182.882 146H190.341L197.25 136.028H197.918L204.827 146H212.325L202.589 132.299ZM240.625 118.519H228.809V146C230.104 146 239.173 146 240.625 146C252.089 146 254.169 137.599 254.169 132.299C254.169 126.999 252.246 118.519 240.625 118.519ZM240.625 140.582C237.877 140.582 235.836 140.582 234.776 140.582V123.976C234.776 123.976 238.113 123.976 240.625 123.976C246.789 123.976 247.967 129.197 247.967 132.299C247.967 135.243 246.75 140.582 240.625 140.582ZM279.635 136.382H279.871C280.185 133.359 279.792 128.726 275.553 125.821V125.86C273.707 124.565 271.195 123.78 268.094 123.78C260.674 123.78 256.277 127.706 256.277 134.89C256.277 142.231 260.556 146 268.094 146C275.317 146 279.164 143.095 279.753 138.344H273.982C273.433 139.797 271.666 140.778 268.094 140.778C264.246 140.778 262.48 139.326 262.048 136.382H279.635ZM268.094 129.001C272.333 129.001 273.433 130.807 273.904 132.456H262.283C262.99 130.218 264.796 129.001 268.094 129.001ZM293.259 132.652L292.748 132.613C288.901 132.024 288.234 131.474 288.234 130.493C288.234 129.826 288.94 128.609 292.277 128.609C295.732 128.609 297.224 129.551 297.224 131.278V131.474H303.309V131.278C303.309 127.902 301.385 123.858 292.277 123.858C283.798 123.858 282.031 127.509 282.031 130.571C282.031 134.968 285.957 136.382 292.277 137.206C292.591 137.245 292.905 137.284 293.219 137.324C295.614 137.599 297.734 137.913 297.734 139.561C297.734 141.014 295.457 141.328 293.062 141.328C289.097 141.328 287.684 140.464 287.684 138.58V138.384H281.56V138.816C281.521 139.954 281.521 141.799 283.052 143.33C284.818 145.097 288.234 146 293.219 146C299.972 146 303.898 144.94 303.898 139.483C303.898 134.262 298.244 133.398 293.259 132.652ZM312.349 146V124.133H306.421V146H312.349ZM312.349 122.563V117.224H306.421V122.563H312.349ZM333.79 124.212V127.47H333.437C331.945 125.507 329.472 124.212 325.389 124.212C316.085 124.212 315.104 132.024 315.104 135.243C315.104 138.227 316.125 146.274 325.35 146.274C329.511 146.274 332.024 145.097 333.516 143.212H333.79V144.783C333.79 148.826 331.985 151.457 327.941 151.457C323.269 151.457 322.249 149.18 322.092 148.002C321.11 148.002 317.734 148.002 316.164 148.002C316.164 151.26 318.087 156.599 327.98 156.599C338.933 156.599 339.758 148.434 339.758 143.88V124.212H333.79ZM327.117 141.132C321.424 141.132 320.796 136.853 320.796 135.243C320.796 133.516 321.385 129.354 327.117 129.354C332.259 129.354 333.319 132.259 333.319 135.243C333.319 138.58 332.259 141.132 327.117 141.132ZM356.309 123.976C352.344 123.976 350.342 125.272 348.929 127.234H348.654V123.976H342.687V146H348.654V135.4C348.654 132.417 349.4 129.119 354.582 129.119C360.274 129.119 359.921 133.28 359.921 135.008V146H365.849V135.008C365.849 131.788 365.613 123.976 356.309 123.976ZM391.443 136.382H391.679C391.993 133.359 391.6 128.726 387.36 125.821V125.86C385.515 124.565 383.003 123.78 379.901 123.78C372.482 123.78 368.085 127.706 368.085 134.89C368.085 142.231 372.364 146 379.901 146C387.125 146 390.972 143.095 391.561 138.344H385.79C385.24 139.797 383.474 140.778 379.901 140.778C376.054 140.778 374.288 139.326 373.856 136.382H391.443ZM379.901 129.001C384.141 129.001 385.24 130.807 385.712 132.456H374.091C374.798 130.218 376.604 129.001 379.901 129.001ZM406.969 123.976C403.161 123.976 401.826 125.115 400.57 127.234H400.217V123.976H394.25V146H400.217V136.146C400.217 133.162 401.512 129.708 405.948 129.708C407.833 129.708 409.364 130.022 409.913 130.179L410.856 124.565C409.835 124.329 408.539 123.976 406.969 123.976ZM459.368 123.976L454.264 140.19L449.239 123.976H443.429L438.443 140.19L433.34 123.976H427.333L434.243 146H442.33L446.334 132.966L450.378 146H458.465L465.374 123.976H459.368ZM481.429 123.976C477.503 123.976 475.108 125.272 473.695 127.234H473.42V117.656H467.453V146H473.42V135.4C473.42 132.417 474.559 129.119 479.701 129.119C485.433 129.119 485.433 133.28 485.433 135.008V146H491.361V135.008C491.361 131.788 490.772 123.976 481.429 123.976ZM506.173 123.584C499.499 123.584 493.924 127.234 493.924 134.811C493.924 142.427 499.499 146 506.173 146C512.886 146 518.46 142.545 518.46 134.811C518.46 127.156 512.886 123.584 506.173 123.584ZM506.173 140.582C502.443 140.582 499.774 138.933 499.774 134.811C499.774 130.65 502.443 129.04 506.173 129.04C509.941 129.04 512.611 130.728 512.611 134.811C512.611 138.776 509.941 140.582 506.173 140.582ZM82.4268 170.976L77.3233 187.19L72.2983 170.976H66.4881L61.5024 187.19L56.3989 170.976H50.3925L57.3018 193H65.3889L69.3932 179.966L73.4368 193H81.5239L88.4332 170.976H82.4268ZM106.314 174.234C104.822 172.272 102.349 170.976 98.2664 170.976C88.9623 170.976 87.9808 178.788 87.9808 182.008C87.9808 184.952 89.0015 193 98.2271 193C102.388 193 104.901 191.861 106.393 189.938H106.589V193H112.556V170.976H106.589V174.234H106.314ZM99.9937 187.896C94.3013 187.896 93.6732 183.578 93.6732 182.008C93.6732 180.28 94.2621 176.119 99.9937 176.119C105.136 176.119 106.196 179.024 106.196 182.008C106.196 185.344 105.136 187.896 99.9937 187.896ZM129.149 170.976C125.184 170.976 123.182 172.272 121.769 174.234H121.494V170.976H115.527V193H121.494V182.4C121.494 179.417 122.24 176.119 127.422 176.119C133.114 176.119 132.761 180.28 132.761 182.008V193H138.689V182.008C138.689 178.788 138.453 170.976 129.149 170.976ZM149.184 176.08H156.329V171.055H149.184V164.695H143.178V171.055H140.273V176.08H143.178V184.913C143.178 188.092 143.178 193 149.184 193C155.151 193 156.329 192.607 156.329 192.607V186.797C150.598 187.111 149.184 187.543 149.184 184.363V183.892V176.08ZM169.74 179.652L169.23 179.613C165.383 179.024 164.715 178.474 164.715 177.493C164.715 176.826 165.422 175.609 168.759 175.609C172.214 175.609 173.705 176.551 173.705 178.278V178.474H179.79V178.278C179.79 174.902 177.867 170.858 168.759 170.858C160.279 170.858 158.513 174.509 158.513 177.571C158.513 181.968 162.438 183.382 168.759 184.206C169.073 184.245 169.387 184.284 169.701 184.324C172.096 184.599 174.216 184.913 174.216 186.561C174.216 188.014 171.939 188.328 169.544 188.328C165.579 188.328 164.166 187.464 164.166 185.58V185.384H158.041V185.816C158.002 186.954 158.002 188.799 159.533 190.33C161.3 192.097 164.715 193 169.701 193C176.453 193 180.379 191.94 180.379 186.483C180.379 181.262 174.726 180.398 169.74 179.652ZM211.206 170.976C207.123 170.976 204.611 172.272 203.119 174.234H202.805V164.656H196.838V193H202.805V189.938H203.08C204.571 191.861 207.084 193 211.206 193C220.471 193 221.491 184.952 221.491 182.008C221.491 178.788 220.51 170.976 211.206 170.976ZM209.479 187.896C204.297 187.896 203.237 185.344 203.237 182.008C203.237 179.024 204.297 176.119 209.479 176.119C215.171 176.119 215.799 180.28 215.799 182.008C215.799 183.578 215.171 187.896 209.479 187.896ZM240.734 170.976V181.615C240.734 184.599 239.949 187.896 234.806 187.896C229.074 187.896 229.467 183.735 229.467 182.008V170.976H223.539V182.008C223.539 185.227 223.775 193 233.079 193C237.044 193 239.046 191.743 240.459 189.781H240.734V193H246.701V170.976H240.734ZM255.555 193V171.133H249.627V193H255.555ZM255.555 169.563V164.224H249.627V169.563H255.555ZM264.583 193V164.773H258.655V193H264.583ZM285.794 164.656V174.234H285.441C283.949 172.272 281.476 170.976 277.393 170.976C268.089 170.976 267.107 178.788 267.107 182.008C267.107 184.952 268.128 193 277.354 193C281.515 193 284.027 191.861 285.519 189.938H285.794V193H291.761V164.656H285.794ZM279.12 187.896C273.428 187.896 272.8 183.578 272.8 182.008C272.8 180.28 273.389 176.119 279.12 176.119C284.263 176.119 285.323 179.024 285.323 182.008C285.323 185.344 284.263 187.896 279.12 187.896ZM331.6 183.382H331.836C332.15 180.359 331.758 175.726 327.518 172.821V172.86C325.673 171.565 323.16 170.78 320.059 170.78C312.639 170.78 308.242 174.706 308.242 181.89C308.242 189.231 312.521 193 320.059 193C327.282 193 331.129 190.095 331.718 185.344H325.947C325.398 186.797 323.631 187.778 320.059 187.778C316.211 187.778 314.445 186.326 314.013 183.382H331.6ZM320.059 176.001C324.299 176.001 325.398 177.807 325.869 179.456H314.249C314.955 177.218 316.761 176.001 320.059 176.001ZM348.813 171.015C344.731 171.015 342.218 172.311 340.726 174.234H340.412V171.015H334.445V201.401H340.412V189.977H340.687C342.179 191.9 344.691 193.078 348.813 193.078C358.078 193.078 359.099 184.991 359.099 182.047C359.099 178.828 358.118 171.015 348.813 171.015ZM347.086 187.935C341.904 187.935 340.844 185.384 340.844 182.047C340.844 179.063 341.904 176.158 347.086 176.158C352.779 176.158 353.407 180.319 353.407 182.047C353.407 183.617 352.779 187.935 347.086 187.935ZM367.573 193V171.133H361.645V193H367.573ZM367.573 169.563V164.224H361.645V169.563H367.573ZM387.487 184.756C387.055 186.287 385.681 187.661 381.912 187.661C378.026 187.661 375.984 185.894 375.984 181.968C375.984 178.239 378.026 176.315 381.912 176.315C385.563 176.315 387.016 177.571 387.526 179.22H393.376C392.865 173.999 388.233 170.937 381.912 170.937C375.435 170.937 370.174 174.863 370.174 181.968C370.174 189.27 375.435 193 381.912 193C388.233 193 392.905 190.055 393.376 184.756H387.487ZM403.289 190.369C403.289 187.582 401.719 186.13 399.756 186.13C397.833 186.13 396.262 187.7 396.262 189.663C396.262 191.469 397.204 192.921 399.403 192.646C399.285 193.667 397.911 194.649 397.911 194.649C397.911 194.649 398.029 195.12 398.421 196.651C402.543 195.198 403.289 191.94 403.289 190.369ZM418.104 168.542C420.381 168.542 423.561 168.817 423.561 168.817V163.753C423.561 163.753 419.753 163.203 415.984 163.203C411.509 163.203 409.664 164.656 409.311 170.976H406.248V175.883H409.232V193H415.199V175.883H423.169V170.976H415.278C415.435 169.013 416.024 168.542 418.104 168.542ZM442.592 170.976V181.615C442.592 184.599 441.807 187.896 436.664 187.896C430.933 187.896 431.325 183.735 431.325 182.008V170.976H425.397V182.008C425.397 185.227 425.633 193 434.937 193C438.902 193 440.904 191.743 442.317 189.781H442.592V193H448.559V170.976H442.592ZM465.108 170.976C461.143 170.976 459.141 172.272 457.727 174.234H457.452V170.976H451.485V193H457.452V182.4C457.452 179.417 458.198 176.119 463.38 176.119C469.073 176.119 468.719 180.28 468.719 182.008V193H474.647V182.008C474.647 178.788 474.412 170.976 465.108 170.976ZM509.419 174.234C507.927 172.272 505.454 170.976 501.371 170.976C492.067 170.976 491.086 178.788 491.086 182.008C491.086 184.952 492.106 193 501.332 193C505.493 193 508.006 191.861 509.498 189.938H509.694V193H515.661V170.976H509.694V174.234H509.419ZM503.099 187.896C497.406 187.896 496.778 183.578 496.778 182.008C496.778 180.28 497.367 176.119 503.099 176.119C508.241 176.119 509.301 179.024 509.301 182.008C509.301 185.344 508.241 187.896 503.099 187.896ZM532.254 170.976C528.289 170.976 526.287 172.272 524.873 174.234H524.599V170.976H518.631V193H524.599V182.4C524.599 179.417 525.344 176.119 530.526 176.119C536.219 176.119 535.866 180.28 535.866 182.008V193H541.793V182.008C541.793 178.788 541.558 170.976 532.254 170.976ZM562.831 164.656V174.234H562.478C560.986 172.272 558.513 170.976 554.43 170.976C545.126 170.976 544.144 178.788 544.144 182.008C544.144 184.952 545.165 193 554.391 193C558.552 193 561.064 191.861 562.556 189.938H562.831V193H568.798V164.656H562.831ZM556.157 187.896C550.465 187.896 549.837 183.578 549.837 182.008C549.837 180.28 550.426 176.119 556.157 176.119C561.3 176.119 562.36 179.024 562.36 182.008C562.36 185.344 561.3 187.896 556.157 187.896ZM85.3588 231.756C84.927 233.287 83.553 234.661 79.7842 234.661C75.8977 234.661 73.8563 232.894 73.8563 228.968C73.8563 225.239 75.8977 223.315 79.7842 223.315C83.4352 223.315 84.8877 224.571 85.3981 226.22H91.2475C90.7371 220.999 86.1047 217.937 79.7842 217.937C73.3067 217.937 68.0462 221.863 68.0462 228.968C68.0462 236.27 73.3067 240 79.7842 240C86.1047 240 90.7764 237.055 91.2475 231.756H85.3588ZM105.972 217.976C102.164 217.976 100.829 219.115 99.5729 221.234H99.2196V217.976H93.2524V240H99.2196V230.146C99.2196 227.162 100.515 223.708 104.951 223.708C106.836 223.708 108.367 224.022 108.916 224.179L109.858 218.565C108.838 218.329 107.542 217.976 105.972 217.976ZM128.855 221.234C127.363 219.272 124.89 217.976 120.807 217.976C111.503 217.976 110.522 225.788 110.522 229.008C110.522 231.952 111.543 240 120.768 240C124.929 240 127.442 238.861 128.934 236.938H129.13V240H135.097V217.976H129.13V221.234H128.855ZM122.535 234.896C116.842 234.896 116.214 230.578 116.214 229.008C116.214 227.28 116.803 223.119 122.535 223.119C127.677 223.119 128.737 226.024 128.737 229.008C128.737 232.344 127.677 234.896 122.535 234.896ZM138.068 218.015V223.472H152.161L138.068 234.386V240H160.209V234.582H146.155L160.209 223.629V218.015H138.068ZM180.895 218.015L174.536 234.582L168.137 218.015H161.855L170.335 240.039H172.455L169.236 248.401H175.556L187.216 218.015H180.895ZM221.974 221.234C220.482 219.272 218.009 217.976 213.926 217.976C204.622 217.976 203.641 225.788 203.641 229.008C203.641 231.952 204.662 240 213.887 240C218.048 240 220.561 238.861 222.053 236.938H222.249V240H228.216V217.976H222.249V221.234H221.974ZM215.654 234.896C209.961 234.896 209.333 230.578 209.333 229.008C209.333 227.28 209.922 223.119 215.654 223.119C220.796 223.119 221.856 226.024 221.856 229.008C221.856 232.344 220.796 234.896 215.654 234.896ZM245.517 218.015C241.434 218.015 238.921 219.311 237.429 221.234H237.115V218.015H231.148V248.401H237.115V236.977H237.39C238.882 238.9 241.395 240.078 245.517 240.078C254.781 240.078 255.802 231.991 255.802 229.047C255.802 225.828 254.821 218.015 245.517 218.015ZM243.789 234.935C238.607 234.935 237.547 232.384 237.547 229.047C237.547 226.063 238.607 223.158 243.789 223.158C249.482 223.158 250.11 227.319 250.11 229.047C250.11 230.617 249.482 234.935 243.789 234.935ZM273.1 218.015C269.017 218.015 266.504 219.311 265.013 221.234H264.699V218.015H258.731V248.401H264.699V236.977H264.973C266.465 238.9 268.978 240.078 273.1 240.078C282.365 240.078 283.385 231.991 283.385 229.047C283.385 225.828 282.404 218.015 273.1 218.015ZM271.372 234.935C266.19 234.935 265.13 232.384 265.13 229.047C265.13 226.063 266.19 223.158 271.372 223.158C277.065 223.158 277.693 227.319 277.693 229.047C277.693 230.617 277.065 234.935 271.372 234.935ZM292.051 240V211.773H286.123V240H292.051ZM301.079 240V218.133H295.151V240H301.079ZM301.079 216.563V211.224H295.151V216.563H301.079ZM320.993 231.756C320.561 233.287 319.187 234.661 315.418 234.661C311.532 234.661 309.49 232.894 309.49 228.968C309.49 225.239 311.532 223.315 315.418 223.315C319.069 223.315 320.522 224.571 321.032 226.22H326.881C326.371 220.999 321.739 217.937 315.418 217.937C308.94 217.937 303.68 221.863 303.68 228.968C303.68 236.27 308.94 240 315.418 240C321.739 240 326.41 237.055 326.881 231.756H320.993ZM347.219 221.234C345.727 219.272 343.254 217.976 339.171 217.976C329.867 217.976 328.885 225.788 328.885 229.008C328.885 231.952 329.906 240 339.132 240C343.293 240 345.805 238.861 347.297 236.938H347.493V240H353.461V217.976H347.493V221.234H347.219ZM340.898 234.896C335.206 234.896 334.578 230.578 334.578 229.008C334.578 227.28 335.167 223.119 340.898 223.119C346.041 223.119 347.101 226.024 347.101 229.008C347.101 232.344 346.041 234.896 340.898 234.896ZM364.576 223.08H371.721V218.055H364.576V211.695H358.569V218.055H355.664V223.08H358.569V231.913C358.569 235.092 358.569 240 364.576 240C370.543 240 371.721 239.607 371.721 239.607V233.797C365.989 234.111 364.576 234.543 364.576 231.363V230.892V223.08ZM380.051 240V218.133H374.123V240H380.051ZM380.051 216.563V211.224H374.123V216.563H380.051ZM394.824 217.584C388.15 217.584 382.576 221.234 382.576 228.811C382.576 236.427 388.15 240 394.824 240C401.537 240 407.112 236.545 407.112 228.811C407.112 221.156 401.537 217.584 394.824 217.584ZM394.824 234.582C391.095 234.582 388.425 232.933 388.425 228.811C388.425 224.65 391.095 223.04 394.824 223.04C398.593 223.04 401.262 224.728 401.262 228.811C401.262 232.776 398.593 234.582 394.824 234.582ZM423.168 217.976C419.203 217.976 417.201 219.272 415.787 221.234H415.513V217.976H409.545V240H415.513V229.4C415.513 226.417 416.259 223.119 421.441 223.119C427.133 223.119 426.78 227.28 426.78 229.008V240H432.708V229.008C432.708 225.788 432.472 217.976 423.168 217.976ZM446.374 226.652L445.863 226.613C442.016 226.024 441.349 225.474 441.349 224.493C441.349 223.826 442.055 222.609 445.392 222.609C448.847 222.609 450.339 223.551 450.339 225.278V225.474H456.424V225.278C456.424 221.902 454.5 217.858 445.392 217.858C436.913 217.858 435.146 221.509 435.146 224.571C435.146 228.968 439.072 230.382 445.392 231.206C445.706 231.245 446.02 231.284 446.335 231.324C448.729 231.599 450.849 231.913 450.849 233.561C450.849 235.014 448.572 235.328 446.178 235.328C442.212 235.328 440.799 234.464 440.799 232.58V232.384H434.675V232.816C434.636 233.954 434.636 235.799 436.167 237.33C437.933 239.097 441.349 240 446.335 240C453.087 240 457.013 238.94 457.013 233.483C457.013 228.262 451.36 227.398 446.374 226.652ZM491.765 221.234C490.273 219.272 487.8 217.976 483.717 217.976C474.413 217.976 473.432 225.788 473.432 229.008C473.432 231.952 474.453 240 483.678 240C487.839 240 490.352 238.861 491.844 236.938H492.04V240H498.007V217.976H492.04V221.234H491.765ZM485.445 234.896C479.752 234.896 479.124 230.578 479.124 229.008C479.124 227.28 479.713 223.119 485.445 223.119C490.588 223.119 491.647 226.024 491.647 229.008C491.647 232.344 490.588 234.896 485.445 234.896ZM514.6 217.976C510.635 217.976 508.633 219.272 507.22 221.234H506.945V217.976H500.978V240H506.945V229.4C506.945 226.417 507.691 223.119 512.873 223.119C518.565 223.119 518.212 227.28 518.212 229.008V240H524.14V229.008C524.14 225.788 523.904 217.976 514.6 217.976ZM545.177 211.656V221.234H544.824C543.332 219.272 540.859 217.976 536.776 217.976C527.472 217.976 526.491 225.788 526.491 229.008C526.491 231.952 527.511 240 536.737 240C540.898 240 543.411 238.861 544.902 236.938H545.177V240H551.144V211.656H545.177ZM538.503 234.896C532.811 234.896 532.183 230.578 532.183 229.008C532.183 227.28 532.772 223.119 538.503 223.119C543.646 223.119 544.706 226.024 544.706 229.008C544.706 232.344 543.646 234.896 538.503 234.896ZM229.626 265.015C225.543 265.015 223.03 266.311 221.539 268.234H221.224V265.015H215.257V295.401H221.224V283.977H221.499C222.991 285.9 225.504 287.078 229.626 287.078C238.89 287.078 239.911 278.991 239.911 276.047C239.911 272.828 238.93 265.015 229.626 265.015ZM227.898 281.935C222.716 281.935 221.656 279.384 221.656 276.047C221.656 273.063 222.716 270.158 227.898 270.158C233.591 270.158 234.219 274.319 234.219 276.047C234.219 277.617 233.591 281.935 227.898 281.935ZM255.215 264.976C251.407 264.976 250.072 266.115 248.816 268.234H248.463V264.976H242.495V287H248.463V277.146C248.463 274.162 249.758 270.708 254.194 270.708C256.079 270.708 257.61 271.022 258.159 271.179L259.101 265.565C258.081 265.329 256.785 264.976 255.215 264.976ZM271.516 264.584C264.842 264.584 259.267 268.234 259.267 275.811C259.267 283.427 264.842 287 271.516 287C278.229 287 283.803 283.545 283.803 275.811C283.803 268.156 278.229 264.584 271.516 264.584ZM271.516 281.582C267.786 281.582 265.117 279.933 265.117 275.811C265.117 271.65 267.786 270.04 271.516 270.04C275.285 270.04 277.954 271.728 277.954 275.811C277.954 279.776 275.285 281.582 271.516 281.582ZM304.847 258.656V268.234H304.494C303.002 266.272 300.529 264.976 296.446 264.976C287.142 264.976 286.16 272.788 286.16 276.008C286.16 278.952 287.181 287 296.407 287C300.568 287 303.081 285.861 304.572 283.938H304.847V287H310.814V258.656H304.847ZM298.173 281.896C292.481 281.896 291.853 277.578 291.853 276.008C291.853 274.28 292.442 270.119 298.173 270.119C303.316 270.119 304.376 273.024 304.376 276.008C304.376 279.344 303.316 281.896 298.173 281.896ZM330.938 264.976V275.615C330.938 278.599 330.153 281.896 325.011 281.896C319.279 281.896 319.672 277.735 319.672 276.008V264.976H313.744V276.008C313.744 279.227 313.979 287 323.283 287C327.248 287 329.25 285.743 330.664 283.781H330.938V287H336.906V264.976H330.938ZM356.761 278.756C356.329 280.287 354.955 281.661 351.186 281.661C347.3 281.661 345.258 279.894 345.258 275.968C345.258 272.239 347.3 270.315 351.186 270.315C354.837 270.315 356.29 271.571 356.8 273.22H362.65C362.139 267.999 357.507 264.937 351.186 264.937C344.709 264.937 339.448 268.863 339.448 275.968C339.448 283.27 344.709 287 351.186 287C357.507 287 362.178 284.055 362.65 278.756H356.761ZM372.761 270.08H379.906V265.055H372.761V258.695H366.754V265.055H363.849V270.08H366.754V278.913C366.754 282.092 366.754 287 372.761 287C378.728 287 379.906 286.607 379.906 286.607V280.797C374.174 281.111 372.761 281.543 372.761 278.363V277.892V270.08ZM393.317 273.652L392.807 273.613C388.959 273.024 388.292 272.474 388.292 271.493C388.292 270.826 388.999 269.609 392.335 269.609C395.79 269.609 397.282 270.551 397.282 272.278V272.474H403.367V272.278C403.367 268.902 401.443 264.858 392.335 264.858C383.856 264.858 382.089 268.509 382.089 271.571C382.089 275.968 386.015 277.382 392.335 278.206C392.649 278.245 392.964 278.284 393.278 278.324C395.672 278.599 397.792 278.913 397.792 280.561C397.792 282.014 395.515 282.328 393.121 282.328C389.156 282.328 387.742 281.464 387.742 279.58V279.384H381.618V279.816C381.579 280.954 381.579 282.799 383.11 284.33C384.876 286.097 388.292 287 393.278 287C400.03 287 403.956 285.94 403.956 280.483C403.956 275.262 398.303 274.398 393.317 273.652Z" fill="white"/>
<path d="M649 25.9122C637.427 26.8364 630.778 27.6866 626.696 30.4959C621.899 33.7857 620.762 39.811 619.5 51.8615C618.195 39.3674 617.017 33.3791 611.757 30.1632C607.675 27.6496 601.068 26.8364 590 25.9492C601.531 25.0251 608.222 24.1749 612.262 21.4026C617.101 18.0757 618.238 12.0875 619.5 0C620.678 11.1264 621.73 17.0777 625.644 20.5154C629.558 23.9531 636.375 24.9142 649 25.9122Z" fill="white"/>
<path d="M59 344.912C47.4272 345.836 40.7782 346.687 36.6961 349.496C31.8987 352.786 30.7625 358.811 29.5 370.861C28.1954 358.367 27.0171 352.379 21.7568 349.163C17.6748 346.65 11.0678 345.836 0 344.949C11.5307 344.025 18.2218 343.175 22.2618 340.403C27.1013 337.076 28.2375 331.087 29.5 319C30.6783 330.126 31.7304 336.078 35.6441 339.515C39.5578 342.953 46.3752 343.914 59 344.912Z" fill="white"/>
</svg>
