<svg width="649" height="371" viewBox="0 0 649 371" fill="none" xmlns="http://www.w3.org/2000/svg">
<path d="M81.4424 82.59H67.1134V71.5193H61.1462V98.9997H67.1134V87.9683H81.4424V98.9997H87.4489V71.5193H81.4424V82.59ZM108.289 80.2345C106.797 78.2716 104.324 76.9761 100.241 76.9761C90.9367 76.9761 89.9552 84.7884 89.9552 88.0075C89.9552 90.9519 90.9759 98.9997 100.201 98.9997C104.363 98.9997 106.875 97.8612 108.367 95.9376H108.563V98.9997H114.531V76.9761H108.563V80.2345H108.289ZM101.968 93.8962C96.2757 93.8962 95.6476 89.5778 95.6476 88.0075C95.6476 86.2802 96.2365 82.1189 101.968 82.1189C107.111 82.1189 108.171 85.0239 108.171 88.0075C108.171 91.3444 107.111 93.8962 101.968 93.8962ZM130.22 76.9761C126.412 76.9761 125.078 78.1146 123.821 80.2345H123.468V76.9761H117.501V98.9997H123.468V89.146C123.468 86.1624 124.764 82.7077 129.2 82.7077C131.084 82.7077 132.615 83.0218 133.165 83.1788L134.107 77.565C133.086 77.3294 131.791 76.9761 130.22 76.9761ZM141.658 98.9997V77.1331H135.73V98.9997H141.658ZM141.658 75.5628V70.2238H135.73V75.5628H141.658ZM169.934 71.5193H158.117V98.9997C159.413 98.9997 168.481 98.9997 169.934 98.9997C181.397 98.9997 183.478 90.5985 183.478 85.2987C183.478 79.999 181.554 71.5193 169.934 71.5193ZM169.934 93.5821C167.186 93.5821 165.145 93.5821 164.085 93.5821V76.9761C164.085 76.9761 167.421 76.9761 169.934 76.9761C176.097 76.9761 177.275 82.1974 177.275 85.2987C177.275 88.2431 176.058 93.5821 169.934 93.5821ZM208.944 89.3816H209.179C209.493 86.3587 209.101 81.7263 204.861 78.8212V78.8605C203.016 77.565 200.503 76.7798 197.402 76.7798C189.982 76.7798 185.586 80.7056 185.586 87.8898C185.586 95.231 189.865 98.9997 197.402 98.9997C204.626 98.9997 208.473 96.0946 209.062 91.3444H203.291C202.741 92.797 200.975 93.7784 197.402 93.7784C193.555 93.7784 191.788 92.3259 191.356 89.3816H208.944ZM197.402 82.0011C201.642 82.0011 202.741 83.807 203.212 85.4558H191.592C192.299 83.2181 194.104 82.0011 197.402 82.0011ZM235.147 89.3816H235.382C235.696 86.3587 235.304 81.7263 231.064 78.8212V78.8605C229.219 77.565 226.706 76.7798 223.605 76.7798C216.185 76.7798 211.789 80.7056 211.789 87.8898C211.789 95.231 216.068 98.9997 223.605 98.9997C230.829 98.9997 234.676 96.0946 235.265 91.3444H229.494C228.944 92.797 227.178 93.7784 223.605 93.7784C219.758 93.7784 217.991 92.3259 217.559 89.3816H235.147ZM223.605 82.0011C227.845 82.0011 228.944 83.807 229.415 85.4558H217.795C218.502 83.2181 220.307 82.0011 223.605 82.0011ZM252.36 77.0154C248.277 77.0154 245.765 78.3109 244.273 80.2345H243.959V77.0154H237.992V107.401H243.959V95.9768H244.234C245.725 97.9005 248.238 99.0782 252.36 99.0782C261.625 99.0782 262.645 90.9911 262.645 88.0468C262.645 84.8277 261.664 77.0154 252.36 77.0154ZM250.633 93.9354C245.45 93.9354 244.391 91.3837 244.391 88.0468C244.391 85.0632 245.45 82.1581 250.633 82.1581C256.325 82.1581 256.953 86.3194 256.953 88.0468C256.953 89.6171 256.325 93.9354 250.633 93.9354ZM285.054 98.9997V77.1331H279.126V98.9997H285.054ZM285.054 75.5628V70.2238H279.126V75.5628H285.054ZM298.894 85.6521L298.384 85.6128C294.537 85.0239 293.869 84.4743 293.869 83.4929C293.869 82.8255 294.576 81.6085 297.913 81.6085C301.368 81.6085 302.859 82.5507 302.859 84.278V84.4743H308.944V84.278C308.944 80.9019 307.021 76.8583 297.913 76.8583C289.433 76.8583 287.667 80.5093 287.667 83.5714C287.667 87.9683 291.592 89.3816 297.913 90.206C298.227 90.2452 298.541 90.2845 298.855 90.3237C301.25 90.5985 303.37 90.9126 303.37 92.5614C303.37 94.014 301.093 94.328 298.698 94.328C294.733 94.328 293.32 93.4644 293.32 91.58V91.3837H287.196V91.8155C287.156 92.954 287.156 94.7991 288.687 96.3302C290.454 98.0968 293.869 98.9997 298.855 98.9997C305.607 98.9997 309.533 97.9397 309.533 92.4829C309.533 87.2616 303.88 86.398 298.894 85.6521ZM344.286 80.2345C342.794 78.2716 340.321 76.9761 336.238 76.9761C326.934 76.9761 325.952 84.7884 325.952 88.0075C325.952 90.9519 326.973 98.9997 336.199 98.9997C340.36 98.9997 342.873 97.8612 344.364 95.9376H344.561V98.9997H350.528V76.9761H344.561V80.2345H344.286ZM337.965 93.8962C332.273 93.8962 331.645 89.5778 331.645 88.0075C331.645 86.2802 332.234 82.1189 337.965 82.1189C343.108 82.1189 344.168 85.0239 344.168 88.0075C344.168 91.3444 343.108 93.8962 337.965 93.8962ZM367.121 76.9761C363.156 76.9761 361.153 78.2716 359.74 80.2345H359.465V76.9761H353.498V98.9997H359.465V88.4001C359.465 85.4165 360.211 82.1189 365.393 82.1189C371.086 82.1189 370.732 86.2802 370.732 88.0075V98.9997H376.66V88.0075C376.66 84.7884 376.425 76.9761 367.121 76.9761ZM411.432 80.2345C409.94 78.2716 407.467 76.9761 403.384 76.9761C394.08 76.9761 393.099 84.7884 393.099 88.0075C393.099 90.9519 394.119 98.9997 403.345 98.9997C407.506 98.9997 410.019 97.8612 411.51 95.9376H411.707V98.9997H417.674V76.9761H411.707V80.2345H411.432ZM405.111 93.8962C399.419 93.8962 398.791 89.5778 398.791 88.0075C398.791 86.2802 399.38 82.1189 405.111 82.1189C410.254 82.1189 411.314 85.0239 411.314 88.0075C411.314 91.3444 410.254 93.8962 405.111 93.8962ZM431.423 85.6521L430.913 85.6128C427.065 85.0239 426.398 84.4743 426.398 83.4929C426.398 82.8255 427.105 81.6085 430.442 81.6085C433.896 81.6085 435.388 82.5507 435.388 84.278V84.4743H441.473V84.278C441.473 80.9019 439.549 76.8583 430.442 76.8583C421.962 76.8583 420.195 80.5093 420.195 83.5714C420.195 87.9683 424.121 89.3816 430.442 90.206C430.756 90.2452 431.07 90.2845 431.384 90.3237C433.778 90.5985 435.898 90.9126 435.898 92.5614C435.898 94.014 433.621 94.328 431.227 94.328C427.262 94.328 425.848 93.4644 425.848 91.58V91.3837H419.724V91.8155C419.685 92.954 419.685 94.7991 421.216 96.3302C422.983 98.0968 426.398 98.9997 431.384 98.9997C438.136 98.9997 442.062 97.9397 442.062 92.4829C442.062 87.2616 436.409 86.398 431.423 85.6521ZM459.337 77.0154C455.254 77.0154 452.742 78.3109 451.25 80.2345H450.936V77.0154H444.969V107.401H450.936V95.9768H451.211C452.702 97.9005 455.215 99.0782 459.337 99.0782C468.602 99.0782 469.623 90.9911 469.623 88.0468C469.623 84.8277 468.641 77.0154 459.337 77.0154ZM457.61 93.9354C452.428 93.9354 451.368 91.3837 451.368 88.0468C451.368 85.0632 452.428 82.1581 457.61 82.1581C463.302 82.1581 463.93 86.3194 463.93 88.0468C463.93 89.6171 463.302 93.9354 457.61 93.9354ZM478.096 98.9997V77.1331H472.168V98.9997H478.096ZM478.096 75.5628V70.2238H472.168V75.5628H478.096ZM493.724 76.9761C489.916 76.9761 488.581 78.1146 487.325 80.2345H486.972V76.9761H481.005V98.9997H486.972V89.146C486.972 86.1624 488.267 82.7077 492.703 82.7077C494.588 82.7077 496.119 83.0218 496.668 83.1788L497.611 77.565C496.59 77.3294 495.294 76.9761 493.724 76.9761ZM505.161 98.9997V77.1331H499.233V98.9997H505.161ZM505.161 75.5628V70.2238H499.233V75.5628H505.161ZM521.692 76.9761C517.727 76.9761 515.725 78.2716 514.311 80.2345H514.037V76.9761H508.069V98.9997H514.037V88.4001C514.037 85.4165 514.782 82.1189 519.964 82.1189C525.657 82.1189 525.304 86.2802 525.304 88.0075V98.9997H531.231V88.0075C531.231 84.7884 530.996 76.9761 521.692 76.9761ZM552.077 77.2117V80.47H551.724C550.232 78.5072 547.759 77.2117 543.676 77.2117C534.372 77.2117 533.391 85.0239 533.391 88.2431C533.391 91.2267 534.411 99.2745 543.637 99.2745C547.798 99.2745 550.311 98.0968 551.802 96.2124H552.077V97.7827C552.077 101.826 550.271 104.457 546.228 104.457C541.556 104.457 540.535 102.18 540.378 101.002C539.397 101.002 536.021 101.002 534.451 101.002C534.451 104.26 536.374 109.599 546.267 109.599C557.22 109.599 558.044 101.434 558.044 96.8798V77.2117H552.077ZM545.403 94.1317C539.711 94.1317 539.083 89.8526 539.083 88.2431C539.083 86.5157 539.672 82.3544 545.403 82.3544C550.546 82.3544 551.606 85.2595 551.606 88.2431C551.606 91.58 550.546 94.1317 545.403 94.1317ZM119.296 132.652C119.296 135.636 119.414 140.543 113.094 140.543C106.852 140.543 106.695 136.774 106.695 132.652V118.519H100.727V133.319C100.727 137.559 100.688 146 113.133 146C125.538 146 125.538 137.088 125.538 133.359C125.538 129.59 125.538 118.519 125.538 118.519H119.296C119.296 118.519 119.296 129.668 119.296 132.652ZM134.431 146V118.519H128.464V146H134.431ZM146.838 117.734L137.377 146H143.501L152.962 117.734H146.838ZM174.481 132.652C174.481 135.636 174.599 140.543 168.278 140.543C162.036 140.543 161.879 136.774 161.879 132.652V118.519H155.912V133.319C155.912 137.559 155.873 146 168.318 146C180.723 146 180.723 137.088 180.723 133.359C180.723 129.59 180.723 118.519 180.723 118.519H174.481C174.481 118.519 174.481 129.668 174.481 132.652ZM202.589 132.299L212.325 118.559H204.827L197.918 128.53H197.25L190.341 118.559H182.882L192.579 132.299L182.882 146H190.341L197.25 136.028H197.918L204.827 146H212.325L202.589 132.299ZM240.625 118.519H228.809V146C230.104 146 239.173 146 240.625 146C252.089 146 254.169 137.599 254.169 132.299C254.169 126.999 252.246 118.519 240.625 118.519ZM240.625 140.582C237.877 140.582 235.836 140.582 234.776 140.582V123.976C234.776 123.976 238.113 123.976 240.625 123.976C246.789 123.976 247.967 129.197 247.967 132.299C247.967 135.243 246.75 140.582 240.625 140.582ZM279.635 136.382H279.871C280.185 133.359 279.792 128.726 275.553 125.821V125.86C273.707 124.565 271.195 123.78 268.094 123.78C260.674 123.78 256.277 127.706 256.277 134.89C256.277 142.231 260.556 146 268.094 146C275.317 146 279.164 143.095 279.753 138.344H273.982C273.433 139.797 271.666 140.778 268.094 140.778C264.246 140.778 262.48 139.326 262.048 136.382H279.635ZM268.094 129.001C272.333 129.001 273.433 130.807 273.904 132.456H262.283C262.99 130.218 264.796 129.001 268.094 129.001ZM293.259 132.652L292.748 132.613C288.901 132.024 288.234 131.474 288.234 130.493C288.234 129.826 288.94 128.609 292.277 128.609C295.732 128.609 297.224 129.551 297.224 131.278V131.474H303.309V131.278C303.309 127.902 301.385 123.858 292.277 123.858C283.798 123.858 282.031 127.509 282.031 130.571C282.031 134.968 285.957 136.382 292.277 137.206C292.591 137.245 292.905 137.284 293.219 137.324C295.614 137.599 297.734 137.913 297.734 139.561C297.734 141.014 295.457 141.328 293.062 141.328C289.097 141.328 287.684 140.464 287.684 138.58V138.384H281.56V138.816C281.521 139.954 281.521 141.799 283.052 143.33C284.818 145.097 288.234 146 293.219 146C299.972 146 303.898 144.94 303.898 139.483C303.898 134.262 298.244 133.398 293.259 132.652ZM312.349 146V124.133H306.421V146H312.349ZM312.349 122.563V117.224H306.421V122.563H312.349ZM333.79 124.212V127.47H333.437C331.945 125.507 329.472 124.212 325.389 124.212C316.085 124.212 315.104 132.024 315.104 135.243C315.104 138.227 316.125 146.274 325.35 146.274C329.511 146.274 332.024 145.097 333.516 143.212H333.79V144.783C333.79 148.826 331.985 151.457 327.941 151.457C323.269 151.457 322.249 149.18 322.092 148.002C321.11 148.002 317.734 148.002 316.164 148.002C316.164 151.26 318.087 156.599 327.98 156.599C338.933 156.599 339.758 148.434 339.758 143.88V124.212H333.79ZM327.117 141.132C321.424 141.132 320.796 136.853 320.796 135.243C320.796 133.516 321.385 129.354 327.117 129.354C332.259 129.354 333.319 132.259 333.319 135.243C333.319 138.58 332.259 141.132 327.117 141.132ZM356.309 123.976C352.344 123.976 350.342 125.272 348.929 127.234H348.654V123.976H342.687V146H348.654V135.4C348.654 132.417 349.4 129.119 354.582 129.119C360.274 129.119 359.921 133.28 359.921 135.008V146H365.849V135.008C365.849 131.788 365.613 123.976 356.309 123.976ZM391.443 136.382H391.679C391.993 133.359 391.6 128.726 387.36 125.821V125.86C385.515 124.565 383.003 123.78 379.901 123.78C372.482 123.78 368.085 127.706 368.085 134.89C368.085 142.231 372.364 146 379.901 146C387.125 146 390.972 143.095 391.561 138.344H385.79C385.24 139.797 383.474 140.778 379.901 140.778C376.054 140.778 374.288 139.326 373.856 136.382H391.443ZM379.901 129.001C384.141 129.001 385.24 130.807 385.712 132.456H374.091C374.798 130.218 376.604 129.001 379.901 129.001ZM406.969 123.976C403.161 123.976 401.826 125.115 400.57 127.234H400.217V123.976H394.25V146H400.217V136.146C400.217 133.162 401.512 129.708 405.948 129.708C407.833 129.708 409.364 130.022 409.913 130.179L410.856 124.565C409.835 124.329 408.539 123.976 406.969 123.976ZM459.368 123.976L454.264 140.19L449.239 123.976H443.429L438.443 140.19L433.34 123.976H427.333L434.243 146H442.33L446.334 132.966L450.378 146H458.465L465.374 123.976H459.368ZM481.429 123.976C477.503 123.976 475.108 125.272 473.695 127.234H473.42V117.656H467.453V146H473.42V135.4C473.42 132.417 474.559 129.119 479.701 129.119C485.433 129.119 485.433 133.28 485.433 135.008V146H491.361V135.008C491.361 131.788 490.772 123.976 481.429 123.976ZM506.173 123.584C499.499 123.584 493.924 127.234 493.924 134.811C493.924 142.427 499.499 146 506.173 146C512.886 146 518.46 142.545 518.46 134.811C518.46 127.156 512.886 123.584 506.173 123.584ZM506.173 140.582C502.443 140.582 499.774 138.933 499.774 134.811C499.774 130.65 502.443 129.04 506.173 129.04C509.941 129.04 512.611 130.728 512.611 134.811C512.611 138.776 509.941 140.582 506.173 140.582ZM93.5255 170.976L88.422 187.19L83.397 170.976H77.5869L72.6012 187.19L67.4977 170.976H61.4912L68.4006 193H76.4877L80.492 179.966L84.5355 193H92.6226L99.532 170.976H93.5255ZM117.413 174.234C115.921 172.272 113.448 170.976 109.365 170.976C100.061 170.976 99.0796 178.788 99.0796 182.008C99.0796 184.952 100.1 193 109.326 193C113.487 193 116 191.861 117.491 189.938H117.688V193H123.655V170.976H117.688V174.234H117.413ZM111.092 187.896C105.4 187.896 104.772 183.578 104.772 182.008C104.772 180.28 105.361 176.119 111.092 176.119C116.235 176.119 117.295 179.024 117.295 182.008C117.295 185.344 116.235 187.896 111.092 187.896ZM140.248 170.976C136.283 170.976 134.281 172.272 132.867 174.234H132.592V170.976H126.625V193H132.592V182.4C132.592 179.417 133.338 176.119 138.52 176.119C144.213 176.119 143.859 180.28 143.859 182.008V193H149.787V182.008C149.787 178.788 149.552 170.976 140.248 170.976ZM160.283 176.08H167.428V171.055H160.283V164.695H154.277V171.055H151.371V176.08H154.277V184.913C154.277 188.092 154.277 193 160.283 193C166.25 193 167.428 192.607 167.428 192.607V186.797C161.696 187.111 160.283 187.543 160.283 184.363V183.892V176.08ZM180.839 179.652L180.329 179.613C176.481 179.024 175.814 178.474 175.814 177.493C175.814 176.826 176.521 175.609 179.858 175.609C183.312 175.609 184.804 176.551 184.804 178.278V178.474H190.889V178.278C190.889 174.902 188.965 170.858 179.858 170.858C171.378 170.858 169.611 174.509 169.611 177.571C169.611 181.968 173.537 183.382 179.858 184.206C180.172 184.245 180.486 184.284 180.8 184.324C183.194 184.599 185.314 184.913 185.314 186.561C185.314 188.014 183.037 188.328 180.643 188.328C176.678 188.328 175.264 187.464 175.264 185.58V185.384H169.14V185.816C169.101 186.954 169.101 188.799 170.632 190.33C172.399 192.097 175.814 193 180.8 193C187.552 193 191.478 191.94 191.478 186.483C191.478 181.262 185.825 180.398 180.839 179.652ZM216.848 176.08H223.993V171.055H216.848V164.695H210.841V171.055H207.936V176.08H210.841V184.913C210.841 188.092 210.841 193 216.848 193C222.815 193 223.993 192.607 223.993 192.607V186.797C218.261 187.111 216.848 187.543 216.848 184.363V183.892V176.08ZM237.57 170.584C230.896 170.584 225.322 174.234 225.322 181.811C225.322 189.427 230.896 193 237.57 193C244.283 193 249.858 189.545 249.858 181.811C249.858 174.156 244.283 170.584 237.57 170.584ZM237.57 187.582C233.841 187.582 231.171 185.933 231.171 181.811C231.171 177.65 233.841 176.04 237.57 176.04C241.339 176.04 244.008 177.728 244.008 181.811C244.008 185.776 241.339 187.582 237.57 187.582ZM280.71 170.976C276.627 170.976 274.114 172.272 272.623 174.234H272.309V164.656H266.341V193H272.309V189.938H272.583C274.075 191.861 276.588 193 280.71 193C289.975 193 290.995 184.952 290.995 182.008C290.995 178.788 290.014 170.976 280.71 170.976ZM278.982 187.896C273.8 187.896 272.74 185.344 272.74 182.008C272.74 179.024 273.8 176.119 278.982 176.119C284.675 176.119 285.303 180.28 285.303 182.008C285.303 183.578 284.675 187.896 278.982 187.896ZM310.238 170.976V181.615C310.238 184.599 309.453 187.896 304.31 187.896C298.578 187.896 298.971 183.735 298.971 182.008V170.976H293.043V182.008C293.043 185.227 293.278 193 302.582 193C306.547 193 308.55 191.743 309.963 189.781H310.238V193H316.205V170.976H310.238ZM325.059 193V171.133H319.131V193H325.059ZM325.059 169.563V164.224H319.131V169.563H325.059ZM334.086 193V164.773H328.159V193H334.086ZM355.298 164.656V174.234H354.945C353.453 172.272 350.98 170.976 346.897 170.976C337.593 170.976 336.611 178.788 336.611 182.008C336.611 184.952 337.632 193 346.857 193C351.019 193 353.531 191.861 355.023 189.938H355.298V193H361.265V164.656H355.298ZM348.624 187.896C342.932 187.896 342.304 183.578 342.304 182.008C342.304 180.28 342.892 176.119 348.624 176.119C353.767 176.119 354.827 179.024 354.827 182.008C354.827 185.344 353.767 187.896 348.624 187.896ZM401.104 183.382H401.34C401.654 180.359 401.261 175.726 397.021 172.821V172.86C395.176 171.565 392.664 170.78 389.563 170.78C382.143 170.78 377.746 174.706 377.746 181.89C377.746 189.231 382.025 193 389.563 193C396.786 193 400.633 190.095 401.222 185.344H395.451C394.902 186.797 393.135 187.778 389.563 187.778C385.715 187.778 383.949 186.326 383.517 183.382H401.104ZM389.563 176.001C393.802 176.001 394.902 177.807 395.373 179.456H383.752C384.459 177.218 386.265 176.001 389.563 176.001ZM418.317 171.015C414.234 171.015 411.722 172.311 410.23 174.234H409.916V171.015H403.949V201.401H409.916V189.977H410.191C411.683 191.9 414.195 193.078 418.317 193.078C427.582 193.078 428.603 184.991 428.603 182.047C428.603 178.828 427.621 171.015 418.317 171.015ZM416.59 187.935C411.408 187.935 410.348 185.384 410.348 182.047C410.348 179.063 411.408 176.158 416.59 176.158C422.282 176.158 422.91 180.319 422.91 182.047C422.91 183.617 422.282 187.935 416.59 187.935ZM437.077 193V171.133H431.149V193H437.077ZM437.077 169.563V164.224H431.149V169.563H437.077ZM456.991 184.756C456.559 186.287 455.185 187.661 451.416 187.661C447.53 187.661 445.488 185.894 445.488 181.968C445.488 178.239 447.53 176.315 451.416 176.315C455.067 176.315 456.52 177.571 457.03 179.22H462.879C462.369 173.999 457.737 170.937 451.416 170.937C444.939 170.937 439.678 174.863 439.678 181.968C439.678 189.27 444.939 193 451.416 193C457.737 193 462.408 190.055 462.879 184.756H456.991ZM472.793 190.369C472.793 187.582 471.223 186.13 469.26 186.13C467.336 186.13 465.766 187.7 465.766 189.663C465.766 191.469 466.708 192.921 468.907 192.646C468.789 193.667 467.415 194.649 467.415 194.649C467.415 194.649 467.533 195.12 467.925 196.651C472.047 195.198 472.793 191.94 472.793 190.369ZM501.16 168.542C503.437 168.542 506.617 168.817 506.617 168.817V163.753C506.617 163.753 502.809 163.203 499.04 163.203C494.564 163.203 492.719 164.656 492.366 170.976H489.304V175.883H492.287V193H498.255V175.883H506.224V170.976H498.333C498.49 169.013 499.079 168.542 501.16 168.542ZM525.648 170.976V181.615C525.648 184.599 524.862 187.896 519.72 187.896C513.988 187.896 514.381 183.735 514.381 182.008V170.976H508.453V182.008C508.453 185.227 508.688 193 517.992 193C521.957 193 523.96 191.743 525.373 189.781H525.648V193H531.615V170.976H525.648ZM548.163 170.976C544.198 170.976 542.196 172.272 540.783 174.234H540.508V170.976H534.541V193H540.508V182.4C540.508 179.417 541.254 176.119 546.436 176.119C552.128 176.119 551.775 180.28 551.775 182.008V193H557.703V182.008C557.703 178.788 557.467 170.976 548.163 170.976ZM86.3403 221.234C84.8485 219.272 82.3753 217.976 78.2924 217.976C68.9884 217.976 68.0069 225.788 68.0069 229.008C68.0069 231.952 69.0276 240 78.2532 240C82.4145 240 84.927 238.861 86.4188 236.938H86.6151V240H92.5823V217.976H86.6151V221.234H86.3403ZM80.0198 234.896C74.3274 234.896 73.6993 230.578 73.6993 229.008C73.6993 227.28 74.2882 223.119 80.0198 223.119C85.1626 223.119 86.2225 226.024 86.2225 229.008C86.2225 232.344 85.1626 234.896 80.0198 234.896ZM109.175 217.976C105.21 217.976 103.208 219.272 101.795 221.234H101.52V217.976H95.5527V240H101.52V229.4C101.52 226.417 102.266 223.119 107.448 223.119C113.14 223.119 112.787 227.28 112.787 229.008V240H118.715V229.008C118.715 225.788 118.479 217.976 109.175 217.976ZM139.752 211.656V221.234H139.399C137.907 219.272 135.434 217.976 131.351 217.976C122.047 217.976 121.066 225.788 121.066 229.008C121.066 231.952 122.086 240 131.312 240C135.473 240 137.986 238.861 139.477 236.938H139.752V240H145.719V211.656H139.752ZM133.078 234.896C127.386 234.896 126.758 230.578 126.758 229.008C126.758 227.28 127.347 223.119 133.078 223.119C138.221 223.119 139.281 226.024 139.281 229.008C139.281 232.344 138.221 234.896 133.078 234.896ZM179.513 231.756C179.081 233.287 177.707 234.661 173.938 234.661C170.052 234.661 168.01 232.894 168.01 228.968C168.01 225.239 170.052 223.315 173.938 223.315C177.589 223.315 179.042 224.571 179.552 226.22H185.402C184.891 220.999 180.259 217.937 173.938 217.937C167.461 217.937 162.2 221.863 162.2 228.968C162.2 236.27 167.461 240 173.938 240C180.259 240 184.931 237.055 185.402 231.756H179.513ZM200.126 217.976C196.318 217.976 194.983 219.115 193.727 221.234H193.374V217.976H187.407V240H193.374V230.146C193.374 227.162 194.669 223.708 199.105 223.708C200.99 223.708 202.521 224.022 203.07 224.179L204.013 218.565C202.992 218.329 201.696 217.976 200.126 217.976ZM223.009 221.234C221.518 219.272 219.044 217.976 214.961 217.976C205.657 217.976 204.676 225.788 204.676 229.008C204.676 231.952 205.697 240 214.922 240C219.084 240 221.596 238.861 223.088 236.938H223.284V240H229.251V217.976H223.284V221.234H223.009ZM216.689 234.896C210.996 234.896 210.368 230.578 210.368 229.008C210.368 227.28 210.957 223.119 216.689 223.119C221.832 223.119 222.892 226.024 222.892 229.008C222.892 232.344 221.832 234.896 216.689 234.896ZM232.222 218.015V223.472H246.315L232.222 234.386V240H254.363V234.582H240.309L254.363 223.629V218.015H232.222ZM275.049 218.015L268.69 234.582L262.291 218.015H256.009L264.489 240.039H266.609L263.39 248.401H269.71L281.37 218.015H275.049ZM316.128 221.234C314.637 219.272 312.163 217.976 308.081 217.976C298.776 217.976 297.795 225.788 297.795 229.008C297.795 231.952 298.816 240 308.041 240C312.203 240 314.715 238.861 316.207 236.938H316.403V240H322.37V217.976H316.403V221.234H316.128ZM309.808 234.896C304.115 234.896 303.487 230.578 303.487 229.008C303.487 227.28 304.076 223.119 309.808 223.119C314.951 223.119 316.011 226.024 316.011 229.008C316.011 232.344 314.951 234.896 309.808 234.896ZM339.671 218.015C335.588 218.015 333.075 219.311 331.584 221.234H331.27V218.015H325.302V248.401H331.27V236.977H331.544C333.036 238.9 335.549 240.078 339.671 240.078C348.936 240.078 349.956 231.991 349.956 229.047C349.956 225.828 348.975 218.015 339.671 218.015ZM337.943 234.935C332.761 234.935 331.701 232.384 331.701 229.047C331.701 226.063 332.761 223.158 337.943 223.158C343.636 223.158 344.264 227.319 344.264 229.047C344.264 230.617 343.636 234.935 337.943 234.935ZM367.254 218.015C363.171 218.015 360.659 219.311 359.167 221.234H358.853V218.015H352.886V248.401H358.853V236.977H359.127C360.619 238.9 363.132 240.078 367.254 240.078C376.519 240.078 377.539 231.991 377.539 229.047C377.539 225.828 376.558 218.015 367.254 218.015ZM365.527 234.935C360.344 234.935 359.285 232.384 359.285 229.047C359.285 226.063 360.344 223.158 365.527 223.158C371.219 223.158 371.847 227.319 371.847 229.047C371.847 230.617 371.219 234.935 365.527 234.935ZM386.205 240V211.773H380.277V240H386.205ZM395.233 240V218.133H389.305V240H395.233ZM395.233 216.563V211.224H389.305V216.563H395.233ZM415.147 231.756C414.715 233.287 413.341 234.661 409.572 234.661C405.686 234.661 403.644 232.894 403.644 228.968C403.644 225.239 405.686 223.315 409.572 223.315C413.223 223.315 414.676 224.571 415.186 226.22H421.035C420.525 220.999 415.893 217.937 409.572 217.937C403.095 217.937 397.834 221.863 397.834 228.968C397.834 236.27 403.095 240 409.572 240C415.893 240 420.564 237.055 421.035 231.756H415.147ZM441.373 221.234C439.881 219.272 437.408 217.976 433.325 217.976C424.021 217.976 423.039 225.788 423.039 229.008C423.039 231.952 424.06 240 433.286 240C437.447 240 439.959 238.861 441.451 236.938H441.648V240H447.615V217.976H441.648V221.234H441.373ZM435.052 234.896C429.36 234.896 428.732 230.578 428.732 229.008C428.732 227.28 429.321 223.119 435.052 223.119C440.195 223.119 441.255 226.024 441.255 229.008C441.255 232.344 440.195 234.896 435.052 234.896ZM458.73 223.08H465.875V218.055H458.73V211.695H452.723V218.055H449.818V223.08H452.723V231.913C452.723 235.092 452.723 240 458.73 240C464.697 240 465.875 239.607 465.875 239.607V233.797C460.143 234.111 458.73 234.543 458.73 231.363V230.892V223.08ZM474.205 240V218.133H468.277V240H474.205ZM474.205 216.563V211.224H468.277V216.563H474.205ZM488.978 217.584C482.304 217.584 476.73 221.234 476.73 228.811C476.73 236.427 482.304 240 488.978 240C495.691 240 501.266 236.545 501.266 228.811C501.266 221.156 495.691 217.584 488.978 217.584ZM488.978 234.582C485.249 234.582 482.579 232.933 482.579 228.811C482.579 224.65 485.249 223.04 488.978 223.04C492.747 223.04 495.417 224.728 495.417 228.811C495.417 232.776 492.747 234.582 488.978 234.582ZM517.322 217.976C513.357 217.976 511.355 219.272 509.942 221.234H509.667V217.976H503.7V240H509.667V229.4C509.667 226.417 510.413 223.119 515.595 223.119C521.287 223.119 520.934 227.28 520.934 229.008V240H526.862V229.008C526.862 225.788 526.626 217.976 517.322 217.976ZM540.528 226.652L540.018 226.613C536.17 226.024 535.503 225.474 535.503 224.493C535.503 223.826 536.21 222.609 539.547 222.609C543.001 222.609 544.493 223.551 544.493 225.278V225.474H550.578V225.278C550.578 221.902 548.654 217.858 539.547 217.858C531.067 217.858 529.3 221.509 529.3 224.571C529.3 228.968 533.226 230.382 539.547 231.206C539.861 231.245 540.175 231.284 540.489 231.324C542.883 231.599 545.003 231.913 545.003 233.561C545.003 235.014 542.726 235.328 540.332 235.328C536.367 235.328 534.953 234.464 534.953 232.58V232.384H528.829V232.816C528.79 233.954 528.79 235.799 530.321 237.33C532.088 239.097 535.503 240 540.489 240C547.241 240 551.167 238.94 551.167 233.483C551.167 228.262 545.514 227.398 540.528 226.652ZM186.474 268.234C184.983 266.272 182.509 264.976 178.426 264.976C169.122 264.976 168.141 272.788 168.141 276.008C168.141 278.952 169.162 287 178.387 287C182.549 287 185.061 285.861 186.553 283.938H186.749V287H192.716V264.976H186.749V268.234H186.474ZM180.154 281.896C174.461 281.896 173.833 277.578 173.833 276.008C173.833 274.28 174.422 270.119 180.154 270.119C185.297 270.119 186.357 273.024 186.357 276.008C186.357 279.344 185.297 281.896 180.154 281.896ZM209.309 264.976C205.344 264.976 203.342 266.272 201.929 268.234H201.654V264.976H195.687V287H201.654V276.4C201.654 273.417 202.4 270.119 207.582 270.119C213.274 270.119 212.921 274.28 212.921 276.008V287H218.849V276.008C218.849 272.788 218.613 264.976 209.309 264.976ZM239.886 258.656V268.234H239.533C238.041 266.272 235.568 264.976 231.485 264.976C222.181 264.976 221.2 272.788 221.2 276.008C221.2 278.952 222.22 287 231.446 287C235.607 287 238.12 285.861 239.612 283.938H239.886V287H245.853V258.656H239.886ZM233.213 281.896C227.52 281.896 226.892 277.578 226.892 276.008C226.892 274.28 227.481 270.119 233.213 270.119C238.355 270.119 239.415 273.024 239.415 276.008C239.415 279.344 238.355 281.896 233.213 281.896ZM276.703 265.015C272.62 265.015 270.107 266.311 268.616 268.234H268.302V265.015H262.334V295.401H268.302V283.977H268.576C270.068 285.9 272.581 287.078 276.703 287.078C285.968 287.078 286.988 278.991 286.988 276.047C286.988 272.828 286.007 265.015 276.703 265.015ZM274.975 281.935C269.793 281.935 268.733 279.384 268.733 276.047C268.733 273.063 269.793 270.158 274.975 270.158C280.668 270.158 281.296 274.319 281.296 276.047C281.296 277.617 280.668 281.935 274.975 281.935ZM302.292 264.976C298.484 264.976 297.149 266.115 295.893 268.234H295.54V264.976H289.572V287H295.54V277.146C295.54 274.162 296.835 270.708 301.271 270.708C303.156 270.708 304.687 271.022 305.236 271.179L306.178 265.565C305.158 265.329 303.862 264.976 302.292 264.976ZM318.593 264.584C311.919 264.584 306.344 268.234 306.344 275.811C306.344 283.427 311.919 287 318.593 287C325.306 287 330.881 283.545 330.881 275.811C330.881 268.156 325.306 264.584 318.593 264.584ZM318.593 281.582C314.863 281.582 312.194 279.933 312.194 275.811C312.194 271.65 314.863 270.04 318.593 270.04C322.362 270.04 325.031 271.728 325.031 275.811C325.031 279.776 322.362 281.582 318.593 281.582ZM351.924 258.656V268.234H351.571C350.079 266.272 347.606 264.976 343.523 264.976C334.219 264.976 333.238 272.788 333.238 276.008C333.238 278.952 334.258 287 343.484 287C347.645 287 350.158 285.861 351.649 283.938H351.924V287H357.891V258.656H351.924ZM345.25 281.896C339.558 281.896 338.93 277.578 338.93 276.008C338.93 274.28 339.519 270.119 345.25 270.119C350.393 270.119 351.453 273.024 351.453 276.008C351.453 279.344 350.393 281.896 345.25 281.896ZM378.016 264.976V275.615C378.016 278.599 377.23 281.896 372.088 281.896C366.356 281.896 366.749 277.735 366.749 276.008V264.976H360.821V276.008C360.821 279.227 361.056 287 370.36 287C374.325 287 376.327 285.743 377.741 283.781H378.016V287H383.983V264.976H378.016ZM403.838 278.756C403.406 280.287 402.032 281.661 398.263 281.661C394.377 281.661 392.335 279.894 392.335 275.968C392.335 272.239 394.377 270.315 398.263 270.315C401.914 270.315 403.367 271.571 403.877 273.22H409.727C409.216 267.999 404.584 264.937 398.263 264.937C391.786 264.937 386.525 268.863 386.525 275.968C386.525 283.27 391.786 287 398.263 287C404.584 287 409.256 284.055 409.727 278.756H403.838ZM419.838 270.08H426.983V265.055H419.838V258.695H413.831V265.055H410.926V270.08H413.831V278.913C413.831 282.092 413.831 287 419.838 287C425.805 287 426.983 286.607 426.983 286.607V280.797C421.251 281.111 419.838 281.543 419.838 278.363V277.892V270.08ZM440.394 273.652L439.884 273.613C436.036 273.024 435.369 272.474 435.369 271.493C435.369 270.826 436.076 269.609 439.412 269.609C442.867 269.609 444.359 270.551 444.359 272.278V272.474H450.444V272.278C450.444 268.902 448.52 264.858 439.412 264.858C430.933 264.858 429.166 268.509 429.166 271.571C429.166 275.968 433.092 277.382 439.412 278.206C439.727 278.245 440.041 278.284 440.355 278.324C442.749 278.599 444.869 278.913 444.869 280.561C444.869 282.014 442.592 282.328 440.198 282.328C436.233 282.328 434.819 281.464 434.819 279.58V279.384H428.695V279.816C428.656 280.954 428.656 282.799 430.187 284.33C431.954 286.097 435.369 287 440.355 287C447.107 287 451.033 285.94 451.033 280.483C451.033 275.262 445.38 274.398 440.394 273.652Z" fill="white"/>
<path d="M649 25.9123C637.427 26.8364 630.778 27.6866 626.696 30.4959C621.899 33.7857 620.762 39.811 619.5 51.8615C618.195 39.3674 617.017 33.3791 611.757 30.1632C607.675 27.6496 601.068 26.8364 590 25.9492C601.531 25.0251 608.222 24.1749 612.262 21.4026C617.101 18.0757 618.238 12.0875 619.5 0C620.678 11.1264 621.73 17.0777 625.644 20.5154C629.558 23.9531 636.375 24.9142 649 25.9123Z" fill="white"/>
<path d="M59 344.912C47.4272 345.836 40.7782 346.687 36.6961 349.496C31.8987 352.786 30.7625 358.811 29.5 370.861C28.1954 358.367 27.0171 352.379 21.7568 349.163C17.6748 346.65 11.0678 345.836 0 344.949C11.5307 344.025 18.2218 343.175 22.2618 340.403C27.1013 337.076 28.2375 331.087 29.5 319C30.6783 330.126 31.7304 336.078 35.6441 339.515C39.5578 342.953 46.3752 343.914 59 344.912Z" fill="white"/>
</svg>
