<svg width="28" height="28" viewBox="0 0 28 28" fill="none" xmlns="http://www.w3.org/2000/svg">
<path fill-rule="evenodd" clip-rule="evenodd" d="M1.16675 3.31096C1.16675 2.74225 1.39267 2.19683 1.79481 1.79469C2.19695 1.39255 2.74237 1.16663 3.31108 1.16663H24.6867C24.9686 1.16617 25.2477 1.2213 25.5082 1.32887C25.7687 1.43644 26.0055 1.59434 26.2049 1.79352C26.4043 1.9927 26.5624 2.22926 26.6703 2.48964C26.7781 2.75002 26.8336 3.02912 26.8334 3.31096V24.6866C26.8337 24.9685 26.7784 25.2477 26.6707 25.5082C26.563 25.7687 26.405 26.0054 26.2058 26.2048C26.0065 26.4042 25.7699 26.5623 25.5094 26.6702C25.249 26.778 24.9698 26.8335 24.6879 26.8333H3.31108C3.02939 26.8333 2.75045 26.7778 2.49021 26.67C2.22997 26.5621 1.99353 26.4041 1.7944 26.2048C1.59526 26.0056 1.43734 25.7691 1.32964 25.5088C1.22195 25.2485 1.1666 24.9695 1.16675 24.6878V3.31096ZM11.3261 10.9526H14.8016V12.698C15.3032 11.6946 16.5866 10.7916 18.5151 10.7916C22.2122 10.7916 23.0884 12.7901 23.0884 16.457V23.2493H19.3469V17.2923C19.3469 15.204 18.8452 14.0256 17.5712 14.0256C15.8037 14.0256 15.0687 15.2961 15.0687 17.2923V23.2493H11.3261V10.9526ZM4.90942 23.0895H8.65208V10.7916H4.90942V23.0883V23.0895ZM9.18758 6.78063C9.19464 7.10108 9.13762 7.41971 9.01986 7.71783C8.90211 8.01594 8.72599 8.28754 8.50185 8.51667C8.27771 8.7458 8.01006 8.92785 7.71461 9.05214C7.41916 9.17643 7.10186 9.24045 6.78133 9.24045C6.4608 9.24045 6.1435 9.17643 5.84805 9.05214C5.5526 8.92785 5.28495 8.7458 5.06081 8.51667C4.83667 8.28754 4.66056 8.01594 4.5428 7.71783C4.42505 7.41971 4.36803 7.10108 4.37508 6.78063C4.38893 6.15163 4.64853 5.55305 5.09828 5.1131C5.54803 4.67314 6.15218 4.42678 6.78133 4.42678C7.41049 4.42678 8.01463 4.67314 8.46438 5.1131C8.91413 5.55305 9.17373 6.15163 9.18758 6.78063V6.78063Z" fill="white"/>
</svg>
