<svg width="220" height="61" viewBox="0 0 220 61" fill="none" xmlns="http://www.w3.org/2000/svg">
<path d="M6.4025 41.9375V54H4.58218V41.9375H6.4025ZM9.285 46.3906H11.0506V47.0938C11.6652 46.4844 12.3579 46.1797 13.1287 46.1797C14.0142 46.1797 14.7043 46.4583 15.1991 47.0156C15.6261 47.4896 15.8397 48.263 15.8397 49.3359V54H14.0741V49.75C14.0741 49 13.9699 48.4818 13.7616 48.1953C13.5584 47.9036 13.1886 47.7578 12.6522 47.7578C12.0689 47.7578 11.6548 47.9505 11.41 48.3359C11.1704 48.7161 11.0506 49.3802 11.0506 50.3281V54H9.285V46.3906ZM20.1987 48.0312V54H18.4409V48.0312H17.6909V46.3906H18.4409V43.6016H20.1987V46.3906H21.5659V48.0312H20.1987ZM30.1516 50.6094H24.6984C24.7453 51.2344 24.9484 51.7318 25.3078 52.1016C25.6672 52.4661 26.1281 52.6484 26.6906 52.6484C27.1281 52.6484 27.4901 52.5443 27.7766 52.3359C28.0578 52.1276 28.3781 51.7422 28.7375 51.1797L30.2219 52.0078C29.9927 52.3984 29.7505 52.7344 29.4953 53.0156C29.2401 53.2917 28.9667 53.5208 28.675 53.7031C28.3833 53.8802 28.0682 54.0104 27.7297 54.0938C27.3911 54.1771 27.024 54.2188 26.6281 54.2188C25.4927 54.2188 24.5812 53.8542 23.8937 53.125C23.2062 52.3906 22.8625 51.4167 22.8625 50.2031C22.8625 49 23.1958 48.026 23.8625 47.2812C24.5344 46.5469 25.425 46.1797 26.5344 46.1797C27.6542 46.1797 28.5396 46.5365 29.1906 47.25C29.8365 47.9583 30.1594 48.9401 30.1594 50.1953L30.1516 50.6094ZM28.3469 49.1719C28.1021 48.2344 27.5109 47.7656 26.5734 47.7656C26.3599 47.7656 26.1594 47.7995 25.9719 47.8672C25.7844 47.9297 25.6125 48.0234 25.4562 48.1484C25.3052 48.2682 25.175 48.4141 25.0656 48.5859C24.9562 48.7578 24.8729 48.9531 24.8156 49.1719H28.3469ZM32.4012 46.3906H34.1591V47.0703C34.482 46.7318 34.7684 46.5 35.0184 46.375C35.2736 46.2448 35.5757 46.1797 35.9247 46.1797C36.3882 46.1797 36.8726 46.3307 37.3778 46.6328L36.5731 48.2422C36.2398 48.0026 35.9143 47.8828 35.5966 47.8828C34.6382 47.8828 34.1591 48.6068 34.1591 50.0547V54H32.4012V46.3906ZM44.2056 46.3906H45.9712V54H44.2056V53.2031C43.4817 53.8802 42.703 54.2188 41.8697 54.2188C40.8176 54.2188 39.9478 53.8385 39.2603 53.0781C38.578 52.3021 38.2369 51.3333 38.2369 50.1719C38.2369 49.0312 38.578 48.0807 39.2603 47.3203C39.9426 46.5599 40.7968 46.1797 41.8228 46.1797C42.7082 46.1797 43.5025 46.5443 44.2056 47.2734V46.3906ZM40.0337 50.1719C40.0337 50.901 40.2291 51.4948 40.6197 51.9531C41.0207 52.4167 41.5259 52.6484 42.1353 52.6484C42.7863 52.6484 43.3124 52.4245 43.7134 51.9766C44.1145 51.513 44.315 50.9245 44.315 50.2109C44.315 49.4974 44.1145 48.9089 43.7134 48.4453C43.3124 47.9922 42.7916 47.7656 42.1509 47.7656C41.5468 47.7656 41.0416 47.9948 40.6353 48.4531C40.2343 48.9167 40.0337 49.4896 40.0337 50.1719ZM54.4319 46.7188V49.0547C54.0308 48.5651 53.6715 48.2292 53.3537 48.0469C53.0412 47.8594 52.6741 47.7656 52.2522 47.7656C51.5907 47.7656 51.0412 47.9974 50.6037 48.4609C50.1662 48.9245 49.9475 49.5052 49.9475 50.2031C49.9475 50.9167 50.1584 51.5026 50.5803 51.9609C51.0074 52.4193 51.5517 52.6484 52.2131 52.6484C52.635 52.6484 53.0074 52.5573 53.3303 52.375C53.6428 52.1979 54.01 51.8542 54.4319 51.3438V53.6641C53.7183 54.0339 53.0048 54.2188 52.2912 54.2188C51.1142 54.2188 50.1298 53.8385 49.3381 53.0781C48.5465 52.3125 48.1506 51.362 48.1506 50.2266C48.1506 49.0911 48.5517 48.1328 49.3537 47.3516C50.1558 46.5703 51.1402 46.1797 52.3069 46.1797C53.0569 46.1797 53.7652 46.3594 54.4319 46.7188ZM58.2675 48.0312V54H56.5097V48.0312H55.7597V46.3906H56.5097V43.6016H58.2675V46.3906H59.6347V48.0312H58.2675ZM62.9078 46.3906V54H61.15V46.3906H62.9078ZM60.8844 43.2266C60.8844 42.9193 60.9964 42.6536 61.2203 42.4297C61.4443 42.2057 61.7125 42.0938 62.025 42.0938C62.3427 42.0938 62.6135 42.2057 62.8375 42.4297C63.0615 42.6484 63.1734 42.9167 63.1734 43.2344C63.1734 43.5521 63.0615 43.8229 62.8375 44.0469C62.6187 44.2708 62.3505 44.3828 62.0328 44.3828C61.7151 44.3828 61.4443 44.2708 61.2203 44.0469C60.9964 43.8229 60.8844 43.5495 60.8844 43.2266ZM65.095 50.1406C65.095 49.0417 65.4882 48.1068 66.2747 47.3359C67.0611 46.5651 68.0195 46.1797 69.1497 46.1797C70.2851 46.1797 71.2486 46.5677 72.0403 47.3438C72.8216 48.1198 73.2122 49.0729 73.2122 50.2031C73.2122 51.3438 72.819 52.2995 72.0325 53.0703C71.2408 53.8359 70.2695 54.2188 69.1184 54.2188C67.9778 54.2188 67.0221 53.8281 66.2513 53.0469C65.4804 52.276 65.095 51.3073 65.095 50.1406ZM66.8919 50.1719C66.8919 50.9323 67.095 51.5339 67.5013 51.9766C67.9179 52.4245 68.4674 52.6484 69.1497 52.6484C69.8372 52.6484 70.3867 52.4271 70.7981 51.9844C71.2096 51.5417 71.4153 50.9505 71.4153 50.2109C71.4153 49.4714 71.2096 48.8802 70.7981 48.4375C70.3815 47.9896 69.832 47.7656 69.1497 47.7656C68.4778 47.7656 67.9335 47.9896 67.5169 48.4375C67.1002 48.8854 66.8919 49.4635 66.8919 50.1719ZM75.3994 46.3906H77.165V47.0938C77.7796 46.4844 78.4723 46.1797 79.2431 46.1797C80.1285 46.1797 80.8186 46.4583 81.3134 47.0156C81.7405 47.4896 81.9541 48.263 81.9541 49.3359V54H80.1884V49.75C80.1884 49 80.0843 48.4818 79.8759 48.1953C79.6728 47.9036 79.303 47.7578 78.7666 47.7578C78.1832 47.7578 77.7692 47.9505 77.5244 48.3359C77.2848 48.7161 77.165 49.3802 77.165 50.3281V54H75.3994V46.3906ZM95.3675 46.3906H97.1331V54H95.3675V53.2031C94.6435 53.8802 93.8649 54.2188 93.0316 54.2188C91.9795 54.2188 91.1097 53.8385 90.4222 53.0781C89.7399 52.3021 89.3987 51.3333 89.3987 50.1719C89.3987 49.0312 89.7399 48.0807 90.4222 47.3203C91.1045 46.5599 91.9586 46.1797 92.9847 46.1797C93.8701 46.1797 94.6644 46.5443 95.3675 47.2734V46.3906ZM91.1956 50.1719C91.1956 50.901 91.3909 51.4948 91.7816 51.9531C92.1826 52.4167 92.6878 52.6484 93.2972 52.6484C93.9482 52.6484 94.4743 52.4245 94.8753 51.9766C95.2763 51.513 95.4769 50.9245 95.4769 50.2109C95.4769 49.4974 95.2763 48.9089 94.8753 48.4453C94.4743 47.9922 93.9534 47.7656 93.3128 47.7656C92.7086 47.7656 92.2034 47.9948 91.7972 48.4531C91.3961 48.9167 91.1956 49.4896 91.1956 50.1719ZM99.6719 46.3906H101.438V47.0938C102.052 46.4844 102.745 46.1797 103.516 46.1797C104.401 46.1797 105.091 46.4583 105.586 47.0156C106.013 47.4896 106.227 48.263 106.227 49.3359V54H104.461V49.75C104.461 49 104.357 48.4818 104.148 48.1953C103.945 47.9036 103.576 47.7578 103.039 47.7578C102.456 47.7578 102.042 47.9505 101.797 48.3359C101.557 48.7161 101.438 49.3802 101.438 50.3281V54H99.6719V46.3906ZM114.382 40.8047H116.148V54H114.382V53.2031C113.69 53.8802 112.906 54.2188 112.031 54.2188C110.989 54.2188 110.125 53.8385 109.437 53.0781C108.755 52.3021 108.414 51.3333 108.414 50.1719C108.414 49.0365 108.755 48.0885 109.437 47.3281C110.114 46.5625 110.966 46.1797 111.992 46.1797C112.882 46.1797 113.679 46.5443 114.382 47.2734V40.8047ZM110.211 50.1719C110.211 50.901 110.406 51.4948 110.797 51.9531C111.198 52.4167 111.703 52.6484 112.312 52.6484C112.963 52.6484 113.489 52.4245 113.89 51.9766C114.291 51.513 114.492 50.9245 114.492 50.2109C114.492 49.4974 114.291 48.9089 113.89 48.4453C113.489 47.9922 112.968 47.7656 112.328 47.7656C111.724 47.7656 111.218 47.9948 110.812 48.4531C110.411 48.9167 110.211 49.4896 110.211 50.1719ZM126.101 41.9375V49.2031C126.101 50.2396 126.27 50.9974 126.608 51.4766C127.114 52.1693 127.825 52.5156 128.741 52.5156C129.663 52.5156 130.377 52.1693 130.882 51.4766C131.22 51.013 131.39 50.2552 131.39 49.2031V41.9375H133.21V49.7031C133.21 50.974 132.814 52.0208 132.022 52.8438C131.132 53.7604 130.038 54.2188 128.741 54.2188C127.444 54.2188 126.353 53.7604 125.468 52.8438C124.676 52.0208 124.28 50.974 124.28 49.7031V41.9375H126.101ZM138.952 47.6953L135.632 41.9375H137.702L140.007 46.0234L142.428 41.9375H144.514L141.038 47.6953L144.686 54H142.647L139.975 49.3828L137.225 54H135.163L138.952 47.6953ZM151.897 54V41.9375H154.428C155.641 41.9375 156.6 42.0573 157.303 42.2969C158.058 42.5312 158.743 42.9297 159.357 43.4922C160.602 44.6276 161.225 46.1198 161.225 47.9688C161.225 49.8229 160.576 51.3229 159.279 52.4688C158.628 53.0417 157.946 53.4401 157.232 53.6641C156.566 53.888 155.621 54 154.397 54H151.897ZM153.717 52.2891H154.537C155.355 52.2891 156.035 52.2031 156.576 52.0312C157.118 51.849 157.607 51.5599 158.045 51.1641C158.941 50.3464 159.389 49.2812 159.389 47.9688C159.389 46.6458 158.946 45.5729 158.061 44.75C157.264 44.0156 156.089 43.6484 154.537 43.6484H153.717V52.2891ZM170.435 50.6094H164.982C165.029 51.2344 165.232 51.7318 165.592 52.1016C165.951 52.4661 166.412 52.6484 166.974 52.6484C167.412 52.6484 167.774 52.5443 168.06 52.3359C168.342 52.1276 168.662 51.7422 169.021 51.1797L170.506 52.0078C170.276 52.3984 170.034 52.7344 169.779 53.0156C169.524 53.2917 169.25 53.5208 168.959 53.7031C168.667 53.8802 168.352 54.0104 168.013 54.0938C167.675 54.1771 167.308 54.2188 166.912 54.2188C165.776 54.2188 164.865 53.8542 164.177 53.125C163.49 52.3906 163.146 51.4167 163.146 50.2031C163.146 49 163.48 48.026 164.146 47.2812C164.818 46.5469 165.709 46.1797 166.818 46.1797C167.938 46.1797 168.823 46.5365 169.474 47.25C170.12 47.9583 170.443 48.9401 170.443 50.1953L170.435 50.6094ZM168.631 49.1719C168.386 48.2344 167.795 47.7656 166.857 47.7656C166.644 47.7656 166.443 47.7995 166.256 47.8672C166.068 47.9297 165.896 48.0234 165.74 48.1484C165.589 48.2682 165.459 48.4141 165.349 48.5859C165.24 48.7578 165.157 48.9531 165.099 49.1719H168.631ZM177.107 47.6875L175.654 48.4609C175.425 47.9922 175.141 47.7578 174.802 47.7578C174.641 47.7578 174.503 47.8125 174.388 47.9219C174.274 48.026 174.216 48.1615 174.216 48.3281C174.216 48.6198 174.555 48.9089 175.232 49.1953C176.164 49.5964 176.792 49.9661 177.115 50.3047C177.438 50.6432 177.599 51.099 177.599 51.6719C177.599 52.4062 177.328 53.0208 176.787 53.5156C176.261 53.9844 175.625 54.2188 174.88 54.2188C173.604 54.2188 172.701 53.5964 172.169 52.3516L173.669 51.6562C173.878 52.0208 174.037 52.2526 174.146 52.3516C174.359 52.5495 174.615 52.6484 174.912 52.6484C175.505 52.6484 175.802 52.3776 175.802 51.8359C175.802 51.5234 175.573 51.2318 175.115 50.9609C174.938 50.8724 174.761 50.7865 174.583 50.7031C174.406 50.6198 174.227 50.5339 174.044 50.4453C173.534 50.1953 173.175 49.9453 172.966 49.6953C172.701 49.3776 172.568 48.9688 172.568 48.4688C172.568 47.8073 172.794 47.2604 173.247 46.8281C173.711 46.3958 174.274 46.1797 174.935 46.1797C175.909 46.1797 176.633 46.6823 177.107 47.6875ZM181.263 46.3906V54H179.505V46.3906H181.263ZM179.239 43.2266C179.239 42.9193 179.351 42.6536 179.575 42.4297C179.799 42.2057 180.067 42.0938 180.38 42.0938C180.698 42.0938 180.969 42.2057 181.192 42.4297C181.416 42.6484 181.528 42.9167 181.528 43.2344C181.528 43.5521 181.416 43.8229 181.192 44.0469C180.974 44.2708 180.706 44.3828 180.388 44.3828C180.07 44.3828 179.799 44.2708 179.575 44.0469C179.351 43.8229 179.239 43.5495 179.239 43.2266ZM191.169 53.8203C191.169 54.1797 191.156 54.4948 191.13 54.7656C191.109 55.0417 191.078 55.2839 191.036 55.4922C190.911 56.0651 190.666 56.5573 190.302 56.9688C189.614 57.7604 188.669 58.1562 187.466 58.1562C186.45 58.1562 185.614 57.8828 184.958 57.3359C184.281 56.7734 183.89 55.9948 183.786 55H185.552C185.619 55.375 185.731 55.6641 185.887 55.8672C186.252 56.3411 186.783 56.5781 187.481 56.5781C188.768 56.5781 189.411 55.7891 189.411 54.2109V53.1484C188.713 53.862 187.908 54.2188 186.997 54.2188C185.96 54.2188 185.111 53.8438 184.45 53.0938C183.783 52.3333 183.45 51.3828 183.45 50.2422C183.45 49.1328 183.76 48.1901 184.38 47.4141C185.046 46.5911 185.927 46.1797 187.02 46.1797C187.979 46.1797 188.776 46.5365 189.411 47.25V46.3906H191.169V53.8203ZM189.481 50.2109C189.481 49.4714 189.283 48.8802 188.887 48.4375C188.486 47.9844 187.973 47.7578 187.348 47.7578C186.682 47.7578 186.156 48.0052 185.77 48.5C185.421 48.9427 185.247 49.5156 185.247 50.2188C185.247 50.9115 185.421 51.4792 185.77 51.9219C186.151 52.4062 186.677 52.6484 187.348 52.6484C188.02 52.6484 188.552 52.4036 188.942 51.9141C189.302 51.4714 189.481 50.9036 189.481 50.2109ZM193.707 46.3906H195.473V47.0938C196.088 46.4844 196.78 46.1797 197.551 46.1797C198.437 46.1797 199.127 46.4583 199.622 47.0156C200.049 47.4896 200.262 48.263 200.262 49.3359V54H198.497V49.75C198.497 49 198.392 48.4818 198.184 48.1953C197.981 47.9036 197.611 47.7578 197.075 47.7578C196.491 47.7578 196.077 47.9505 195.832 48.3359C195.593 48.7161 195.473 49.3802 195.473 50.3281V54H193.707V46.3906ZM209.738 50.6094H204.285C204.332 51.2344 204.535 51.7318 204.895 52.1016C205.254 52.4661 205.715 52.6484 206.277 52.6484C206.715 52.6484 207.077 52.5443 207.363 52.3359C207.645 52.1276 207.965 51.7422 208.324 51.1797L209.809 52.0078C209.58 52.3984 209.337 52.7344 209.082 53.0156C208.827 53.2917 208.554 53.5208 208.262 53.7031C207.97 53.8802 207.655 54.0104 207.317 54.0938C206.978 54.1771 206.611 54.2188 206.215 54.2188C205.08 54.2188 204.168 53.8542 203.481 53.125C202.793 52.3906 202.449 51.4167 202.449 50.2031C202.449 49 202.783 48.026 203.449 47.2812C204.121 46.5469 205.012 46.1797 206.121 46.1797C207.241 46.1797 208.126 46.5365 208.777 47.25C209.423 47.9583 209.746 48.9401 209.746 50.1953L209.738 50.6094ZM207.934 49.1719C207.689 48.2344 207.098 47.7656 206.16 47.7656C205.947 47.7656 205.746 47.7995 205.559 47.8672C205.371 47.9297 205.199 48.0234 205.043 48.1484C204.892 48.2682 204.762 48.4141 204.652 48.5859C204.543 48.7578 204.46 48.9531 204.402 49.1719H207.934ZM211.988 46.3906H213.746V47.0703C214.069 46.7318 214.355 46.5 214.605 46.375C214.861 46.2448 215.163 46.1797 215.512 46.1797C215.975 46.1797 216.459 46.3307 216.965 46.6328L216.16 48.2422C215.827 48.0026 215.501 47.8828 215.183 47.8828C214.225 47.8828 213.746 48.6068 213.746 50.0547V54H211.988V46.3906Z" fill="#5C5C5C"/>
<path d="M54.0444 34V11.3828L42.0912 34H33.7475L21.7944 11.3828V34H13.0991V1.79688H24.9116L37.9194 26.1719L50.9272 1.79688H62.6928V34H54.0444ZM82.4262 34H73.7309V1.79688H95.5278C97.8716 1.79688 99.8559 2.03906 101.481 2.52344C103.122 3.00781 104.45 3.69531 105.465 4.58594C106.497 5.47656 107.239 6.55469 107.692 7.82031C108.161 9.07031 108.395 10.4688 108.395 12.0156C108.395 13.375 108.2 14.5625 107.809 15.5781C107.434 16.5938 106.918 17.4688 106.262 18.2031C105.622 18.9219 104.872 19.5312 104.012 20.0312C103.153 20.5312 102.247 20.9453 101.293 21.2734L111.84 34H101.668L91.9184 22.1406H82.4262V34ZM99.6059 11.9688C99.6059 11.3438 99.52 10.8125 99.3481 10.375C99.1919 9.9375 98.9106 9.58594 98.5044 9.32031C98.0981 9.03906 97.5512 8.83594 96.8637 8.71094C96.1919 8.58594 95.3481 8.52344 94.3325 8.52344H82.4262V15.4141H94.3325C95.3481 15.4141 96.1919 15.3516 96.8637 15.2266C97.5512 15.1016 98.0981 14.9062 98.5044 14.6406C98.9106 14.3594 99.1919 14 99.3481 13.5625C99.52 13.125 99.6059 12.5938 99.6059 11.9688ZM149.855 34V20.5703H127.73V34H119.035V1.79688H127.73V13.5156H149.855V1.79688H158.55V34H149.855ZM209.034 17.875C209.034 19.9375 208.807 21.7734 208.354 23.3828C207.901 24.9766 207.26 26.3672 206.432 27.5547C205.62 28.7422 204.635 29.75 203.479 30.5781C202.338 31.4062 201.065 32.0703 199.659 32.5703C198.253 33.0703 196.737 33.4375 195.112 33.6719C193.487 33.8906 191.792 34 190.026 34H169.588V1.79688H189.979C191.745 1.79688 193.44 1.91406 195.065 2.14844C196.69 2.36719 198.206 2.72656 199.612 3.22656C201.034 3.72656 202.323 4.39063 203.479 5.21875C204.635 6.03125 205.62 7.03906 206.432 8.24219C207.26 9.42969 207.901 10.8203 208.354 12.4141C208.807 14.0078 209.034 15.8281 209.034 17.875ZM200.268 17.875C200.268 16.3281 200.065 14.9844 199.659 13.8438C199.268 12.7031 198.628 11.7656 197.737 11.0312C196.862 10.2812 195.713 9.72656 194.292 9.36719C192.87 8.99219 191.135 8.80469 189.088 8.80469H178.284V26.9922H189.088C191.135 26.9922 192.87 26.8125 194.292 26.4531C195.713 26.0781 196.862 25.5156 197.737 24.7656C198.628 24 199.268 23.0469 199.659 21.9062C200.065 20.7656 200.268 19.4219 200.268 17.875Z" fill="black"/>
</svg>
