<svg width="213" height="58" viewBox="0 0 213 58" fill="none" xmlns="http://www.w3.org/2000/svg">
<path d="M48.1484 45.304C48.1484 46.3984 48.1916 48.1984 45.8732 48.1984C43.5836 48.1984 43.526 46.816 43.526 45.304V40.12H41.3372V45.5488C41.3372 47.104 41.3228 50.2 45.8876 50.2C50.438 50.2 50.438 46.9312 50.438 45.5632C50.438 44.1808 50.438 40.12 50.438 40.12H48.1484C48.1484 40.12 48.1484 44.2096 48.1484 45.304ZM53.6999 50.2V40.12H51.5111V50.2H53.6999ZM68.3336 47.6512C69.0968 46.6432 69.1832 45.5488 69.1976 45.1168V44.944H67.0808L67.0952 45.1312C67.0952 45.6064 66.98 46.0384 66.764 46.3696C66.4472 46.1104 65.396 45.232 64.4888 44.4976L64.2728 44.3104C63.5672 43.72 63.0488 43.3024 63.0488 42.7264C63.0488 41.9488 63.4088 41.5888 64.2296 41.5888C65.3672 41.5888 65.972 42.0352 65.972 42.856V43.0432H68.3048V42.856C68.3048 41.2576 67.052 39.6304 64.244 39.6304C62.66 39.6304 60.8312 40.3504 60.8312 42.3664C60.8312 43.0288 60.932 43.4032 61.2632 43.9648C60.1544 44.9152 59.7512 45.7792 59.7512 47.1184C59.7512 49.3072 61.8536 50.272 63.956 50.272C64.9784 50.272 66.0584 49.8544 66.8648 49.1488L68.0888 50.2144H68.3912L69.6872 48.688L68.3336 47.6512ZM65.396 47.8384C65.036 48.0832 64.5176 48.1984 63.74 48.1984C63.1496 48.1984 61.7816 48.0832 61.7816 46.96C61.7816 46.1824 62.084 45.7936 62.4872 45.4048C62.8904 45.7792 63.3368 46.1392 63.74 46.456C64.028 46.6864 64.316 46.9168 64.5896 47.1616C64.8776 47.4064 65.1368 47.6224 65.396 47.8384ZM82.5509 45.304C82.5509 46.3984 82.5941 48.1984 80.2757 48.1984C77.9861 48.1984 77.9285 46.816 77.9285 45.304V40.12H75.7397V45.5488C75.7397 47.104 75.7253 50.2 80.2901 50.2C84.8405 50.2 84.8405 46.9312 84.8405 45.5632C84.8405 44.1808 84.8405 40.12 84.8405 40.12H82.5509C82.5509 40.12 82.5509 44.2096 82.5509 45.304ZM92.8612 45.1744L96.4324 40.1344H93.682L91.1476 43.792H90.9028L88.3684 40.1344H85.6324L89.1892 45.1744L85.6324 50.2H88.3684L90.9028 46.5424H91.1476L93.682 50.2H96.4324L92.8612 45.1744ZM106.813 40.12H102.479V50.2C102.954 50.2 106.28 50.2 106.813 50.2C111.018 50.2 111.781 47.1184 111.781 45.1744C111.781 43.2304 111.076 40.12 106.813 40.12ZM106.813 48.2128C105.805 48.2128 105.056 48.2128 104.668 48.2128V42.1216C104.668 42.1216 105.892 42.1216 106.813 42.1216C109.074 42.1216 109.506 44.0368 109.506 45.1744C109.506 46.2544 109.06 48.2128 106.813 48.2128ZM121.122 46.672H121.209C121.324 45.5632 121.18 43.864 119.625 42.7984V42.8128C118.948 42.3376 118.026 42.0496 116.889 42.0496C114.167 42.0496 112.554 43.4896 112.554 46.1248C112.554 48.8176 114.124 50.2 116.889 50.2C119.538 50.2 120.949 49.1344 121.165 47.392H119.049C118.847 47.9248 118.199 48.2848 116.889 48.2848C115.477 48.2848 114.829 47.752 114.671 46.672H121.122ZM116.889 43.9648C118.444 43.9648 118.847 44.6272 119.02 45.232H114.757C115.017 44.4112 115.679 43.9648 116.889 43.9648ZM126.119 45.304L125.932 45.2896C124.521 45.0736 124.276 44.872 124.276 44.512C124.276 44.2672 124.535 43.8208 125.759 43.8208C127.027 43.8208 127.574 44.1664 127.574 44.8V44.872H129.806V44.8C129.806 43.5616 129.1 42.0784 125.759 42.0784C122.649 42.0784 122.001 43.4176 122.001 44.5408C122.001 46.1536 123.441 46.672 125.759 46.9744C125.875 46.9888 125.99 47.0032 126.105 47.0176C126.983 47.1184 127.761 47.2336 127.761 47.8384C127.761 48.3712 126.926 48.4864 126.047 48.4864C124.593 48.4864 124.075 48.1696 124.075 47.4784V47.4064H121.828V47.5648C121.814 47.9824 121.814 48.6592 122.375 49.2208C123.023 49.8688 124.276 50.2 126.105 50.2C128.582 50.2 130.022 49.8112 130.022 47.8096C130.022 45.8944 127.948 45.5776 126.119 45.304ZM133.122 50.2V42.1792H130.947V50.2H133.122ZM133.122 41.6032V39.6448H130.947V41.6032H133.122ZM140.987 42.208V43.4032H140.857C140.31 42.6832 139.403 42.208 137.905 42.208C134.492 42.208 134.132 45.0736 134.132 46.2544C134.132 47.3488 134.507 50.3008 137.891 50.3008C139.417 50.3008 140.339 49.8688 140.886 49.1776H140.987V49.7536C140.987 51.2368 140.324 52.2016 138.841 52.2016C137.127 52.2016 136.753 51.3664 136.695 50.9344C136.335 50.9344 135.097 50.9344 134.521 50.9344C134.521 52.1296 135.227 54.088 138.855 54.088C142.873 54.088 143.175 51.0928 143.175 49.4224V42.208H140.987ZM138.539 48.4144C136.451 48.4144 136.22 46.8448 136.22 46.2544C136.22 45.6208 136.436 44.0944 138.539 44.0944C140.425 44.0944 140.814 45.16 140.814 46.2544C140.814 47.4784 140.425 48.4144 138.539 48.4144ZM149.247 42.1216C147.792 42.1216 147.058 42.5968 146.54 43.3168H146.439V42.1216H144.25V50.2H146.439V46.312C146.439 45.2176 146.712 44.008 148.613 44.008C150.701 44.008 150.572 45.5344 150.572 46.168V50.2H152.746V46.168C152.746 44.9872 152.66 42.1216 149.247 42.1216ZM162.134 46.672H162.22C162.336 45.5632 162.192 43.864 160.636 42.7984V42.8128C159.96 42.3376 159.038 42.0496 157.9 42.0496C155.179 42.0496 153.566 43.4896 153.566 46.1248C153.566 48.8176 155.136 50.2 157.9 50.2C160.55 50.2 161.961 49.1344 162.177 47.392H160.06C159.859 47.9248 159.211 48.2848 157.9 48.2848C156.489 48.2848 155.841 47.752 155.683 46.672H162.134ZM157.9 43.9648C159.456 43.9648 159.859 44.6272 160.032 45.232H155.769C156.028 44.4112 156.691 43.9648 157.9 43.9648ZM167.829 42.1216C166.432 42.1216 165.943 42.5392 165.482 43.3168H165.352V42.1216H163.163V50.2H165.352V46.5856C165.352 45.4912 165.827 44.224 167.455 44.224C168.146 44.224 168.707 44.3392 168.909 44.3968L169.255 42.3376C168.88 42.2512 168.405 42.1216 167.829 42.1216Z" fill="#B9B9B9"/>
<path d="M6.50807 35V2.8592H23.3561L33.2057 20.9168L43.2281 2.8592H59.3849V35H47.2457V14.9552L35.9705 35H29.7065L18.4745 14.9552V35H6.50807ZM76.6784 10.6784V16.208H90.7616C93.2384 16.208 94.4768 15.2864 94.4768 13.4432V13.4C94.4768 11.5856 93.2384 10.6784 90.7616 10.6784H76.6784ZM76.6784 23.984V35H64.4096V2.8592H93.6128C102.627 2.8592 107.134 5.6096 107.134 11.1104V11.5856C107.134 12.68 106.918 13.6736 106.486 14.5664C106.054 15.4592 105.478 16.1792 104.758 16.7264C104.067 17.2736 103.376 17.7056 102.685 18.0224C102.022 18.3392 101.346 18.584 100.654 18.7568C102.699 19.2176 104.312 20.1104 105.493 21.4352C106.674 22.7312 107.264 24.3872 107.264 26.4032V31.1552C107.264 32.8256 107.466 34.0352 107.869 34.784V35H95.3408C95.0816 34.712 94.952 34.1504 94.952 33.3152V29.5568C94.952 27.656 94.448 26.2592 93.44 25.3664C92.4608 24.4448 90.7904 23.984 88.4288 23.984H76.6784ZM111.511 35V2.8592H123.78V14.2208H143.868V2.8592H156.093V35H143.868V22.7744H123.78V35H111.511ZM161.102 35V2.8592H183.911C187.482 2.8592 190.65 3.1472 193.415 3.7232C196.18 4.2992 198.412 5.0624 200.111 6.0128C201.81 6.9632 203.193 8.1152 204.258 9.4688C205.353 10.8224 206.102 12.1904 206.505 13.5728C206.908 14.9552 207.11 16.4528 207.11 18.0656V19.3616C207.11 20.9456 206.922 22.4288 206.548 23.8112C206.202 25.1936 205.497 26.5904 204.431 28.0016C203.394 29.4128 202.041 30.6224 200.37 31.6304C198.729 32.6096 196.497 33.416 193.674 34.0496C190.881 34.6832 187.641 35 183.954 35H161.102ZM173.37 11.2832V26.4896H182.486C190.406 26.4896 194.366 23.984 194.366 18.9728V18.7136C194.366 13.76 190.406 11.2832 182.486 11.2832H173.37Z" fill="white"/>
</svg>
