<svg width="220" height="61" viewBox="0 0 220 61" fill="none" xmlns="http://www.w3.org/2000/svg">
<path d="M14.8553 41.9375V54H13.035V41.9375H14.8553ZM17.7378 46.3906H19.5034V47.0938C20.118 46.4844 20.8107 46.1797 21.5816 46.1797C22.467 46.1797 23.1571 46.4583 23.6519 47.0156C24.079 47.4896 24.2925 48.263 24.2925 49.3359V54H22.5269V49.75C22.5269 49 22.4227 48.4818 22.2144 48.1953C22.0113 47.9036 21.6415 47.7578 21.105 47.7578C20.5217 47.7578 20.1076 47.9505 19.8628 48.3359C19.6232 48.7161 19.5034 49.3802 19.5034 50.3281V54H17.7378V46.3906ZM28.6516 48.0312V54H26.8938V48.0312H26.1438V46.3906H26.8938V43.6016H28.6516V46.3906H30.0188V48.0312H28.6516ZM38.6044 50.6094H33.1513C33.1981 51.2344 33.4013 51.7318 33.7606 52.1016C34.12 52.4661 34.5809 52.6484 35.1434 52.6484C35.5809 52.6484 35.9429 52.5443 36.2294 52.3359C36.5106 52.1276 36.8309 51.7422 37.1903 51.1797L38.6747 52.0078C38.4455 52.3984 38.2033 52.7344 37.9481 53.0156C37.6929 53.2917 37.4195 53.5208 37.1278 53.7031C36.8361 53.8802 36.521 54.0104 36.1825 54.0938C35.844 54.1771 35.4768 54.2188 35.0809 54.2188C33.9455 54.2188 33.0341 53.8542 32.3466 53.125C31.6591 52.3906 31.3153 51.4167 31.3153 50.2031C31.3153 49 31.6486 48.026 32.3153 47.2812C32.9872 46.5469 33.8778 46.1797 34.9872 46.1797C36.107 46.1797 36.9924 46.5365 37.6434 47.25C38.2893 47.9583 38.6122 48.9401 38.6122 50.1953L38.6044 50.6094ZM36.7997 49.1719C36.5549 48.2344 35.9638 47.7656 35.0263 47.7656C34.8127 47.7656 34.6122 47.7995 34.4247 47.8672C34.2372 47.9297 34.0653 48.0234 33.9091 48.1484C33.758 48.2682 33.6278 48.4141 33.5184 48.5859C33.4091 48.7578 33.3257 48.9531 33.2684 49.1719H36.7997ZM40.8541 46.3906H42.6119V47.0703C42.9348 46.7318 43.2213 46.5 43.4713 46.375C43.7265 46.2448 44.0285 46.1797 44.3775 46.1797C44.841 46.1797 45.3254 46.3307 45.8306 46.6328L45.0259 48.2422C44.6926 48.0026 44.3671 47.8828 44.0494 47.8828C43.091 47.8828 42.6119 48.6068 42.6119 50.0547V54H40.8541V46.3906ZM52.6584 46.3906H54.4241V54H52.6584V53.2031C51.9345 53.8802 51.1558 54.2188 50.3225 54.2188C49.2704 54.2188 48.4006 53.8385 47.7131 53.0781C47.0308 52.3021 46.6897 51.3333 46.6897 50.1719C46.6897 49.0312 47.0308 48.0807 47.7131 47.3203C48.3954 46.5599 49.2496 46.1797 50.2756 46.1797C51.161 46.1797 51.9553 46.5443 52.6584 47.2734V46.3906ZM48.4866 50.1719C48.4866 50.901 48.6819 51.4948 49.0725 51.9531C49.4735 52.4167 49.9788 52.6484 50.5881 52.6484C51.2392 52.6484 51.7652 52.4245 52.1663 51.9766C52.5673 51.513 52.7678 50.9245 52.7678 50.2109C52.7678 49.4974 52.5673 48.9089 52.1663 48.4453C51.7652 47.9922 51.2444 47.7656 50.6038 47.7656C49.9996 47.7656 49.4944 47.9948 49.0881 48.4531C48.6871 48.9167 48.4866 49.4896 48.4866 50.1719ZM62.8847 46.7188V49.0547C62.4836 48.5651 62.1243 48.2292 61.8066 48.0469C61.4941 47.8594 61.1269 47.7656 60.705 47.7656C60.0435 47.7656 59.4941 47.9974 59.0566 48.4609C58.6191 48.9245 58.4003 49.5052 58.4003 50.2031C58.4003 50.9167 58.6113 51.5026 59.0331 51.9609C59.4602 52.4193 60.0045 52.6484 60.6659 52.6484C61.0878 52.6484 61.4602 52.5573 61.7831 52.375C62.0956 52.1979 62.4628 51.8542 62.8847 51.3438V53.6641C62.1711 54.0339 61.4576 54.2188 60.7441 54.2188C59.567 54.2188 58.5826 53.8385 57.7909 53.0781C56.9993 52.3125 56.6034 51.362 56.6034 50.2266C56.6034 49.0911 57.0045 48.1328 57.8066 47.3516C58.6086 46.5703 59.593 46.1797 60.7597 46.1797C61.5097 46.1797 62.218 46.3594 62.8847 46.7188ZM66.7203 48.0312V54H64.9625V48.0312H64.2125V46.3906H64.9625V43.6016H66.7203V46.3906H68.0875V48.0312H66.7203ZM71.3606 46.3906V54H69.6028V46.3906H71.3606ZM69.3372 43.2266C69.3372 42.9193 69.4492 42.6536 69.6731 42.4297C69.8971 42.2057 70.1653 42.0938 70.4778 42.0938C70.7955 42.0938 71.0664 42.2057 71.2903 42.4297C71.5143 42.6484 71.6263 42.9167 71.6263 43.2344C71.6263 43.5521 71.5143 43.8229 71.2903 44.0469C71.0716 44.2708 70.8033 44.3828 70.4856 44.3828C70.1679 44.3828 69.8971 44.2708 69.6731 44.0469C69.4492 43.8229 69.3372 43.5495 69.3372 43.2266ZM73.5478 50.1406C73.5478 49.0417 73.9411 48.1068 74.7275 47.3359C75.514 46.5651 76.4723 46.1797 77.6025 46.1797C78.7379 46.1797 79.7015 46.5677 80.4931 47.3438C81.2744 48.1198 81.665 49.0729 81.665 50.2031C81.665 51.3438 81.2718 52.2995 80.4853 53.0703C79.6937 53.8359 78.7223 54.2188 77.5713 54.2188C76.4306 54.2188 75.4749 53.8281 74.7041 53.0469C73.9332 52.276 73.5478 51.3073 73.5478 50.1406ZM75.3447 50.1719C75.3447 50.9323 75.5478 51.5339 75.9541 51.9766C76.3707 52.4245 76.9202 52.6484 77.6025 52.6484C78.29 52.6484 78.8395 52.4271 79.2509 51.9844C79.6624 51.5417 79.8681 50.9505 79.8681 50.2109C79.8681 49.4714 79.6624 48.8802 79.2509 48.4375C78.8343 47.9896 78.2848 47.7656 77.6025 47.7656C76.9306 47.7656 76.3864 47.9896 75.9697 48.4375C75.553 48.8854 75.3447 49.4635 75.3447 50.1719ZM83.8522 46.3906H85.6178V47.0938C86.2324 46.4844 86.9251 46.1797 87.6959 46.1797C88.5814 46.1797 89.2715 46.4583 89.7663 47.0156C90.1933 47.4896 90.4069 48.263 90.4069 49.3359V54H88.6413V49.75C88.6413 49 88.5371 48.4818 88.3288 48.1953C88.1256 47.9036 87.7558 47.7578 87.2194 47.7578C86.636 47.7578 86.222 47.9505 85.9772 48.3359C85.7376 48.7161 85.6178 49.3802 85.6178 50.3281V54H83.8522V46.3906ZM103.289 47.2891L105.461 49.9141L105.531 49.8359C105.766 49.5807 105.987 49.3307 106.195 49.0859C106.404 48.8411 106.604 48.5938 106.797 48.3438L107.984 49.5625C107.839 49.7708 107.646 50.013 107.406 50.2891C107.172 50.5651 106.891 50.8828 106.562 51.2422L108.797 54H106.531L105.328 52.5234C104.224 53.6641 103.076 54.2344 101.883 54.2344C100.815 54.2344 99.9089 53.8932 99.1641 53.2109C98.4349 52.5234 98.0703 51.6745 98.0703 50.6641C98.0703 49.4609 98.6484 48.4609 99.8047 47.6641L100.594 47.125C100.604 47.1198 100.622 47.1068 100.648 47.0859C100.674 47.0651 100.711 47.0365 100.758 47C99.9609 46.151 99.5625 45.3151 99.5625 44.4922C99.5625 43.6797 99.8281 43.0182 100.359 42.5078C100.901 41.9974 101.599 41.7422 102.453 41.7422C103.281 41.7422 103.966 41.9896 104.508 42.4844C105.049 42.9792 105.32 43.6042 105.32 44.3594C105.32 44.8802 105.172 45.3516 104.875 45.7734C104.583 46.1953 104.055 46.7005 103.289 47.2891ZM101.844 48.3125L101.742 48.3828C100.997 48.8984 100.49 49.3125 100.219 49.625C99.9531 49.9375 99.8203 50.2682 99.8203 50.6172C99.8203 51.1172 100.021 51.5755 100.422 51.9922C100.839 52.3932 101.297 52.5938 101.797 52.5938C102.5 52.5938 103.31 52.1328 104.227 51.2109L101.844 48.3125ZM102.234 46.0078L102.383 45.8984C102.638 45.7057 102.849 45.5391 103.016 45.3984C103.182 45.2526 103.302 45.1302 103.375 45.0312C103.531 44.8385 103.609 44.6016 103.609 44.3203C103.609 44.0026 103.503 43.7448 103.289 43.5469C103.076 43.349 102.789 43.25 102.43 43.25C102.102 43.25 101.826 43.3516 101.602 43.5547C101.378 43.7474 101.266 43.9948 101.266 44.2969C101.266 44.651 101.406 45 101.688 45.3438L102.141 45.8906C102.156 45.9167 102.188 45.9557 102.234 46.0078ZM117.648 41.9375V49.2031C117.648 50.2396 117.817 50.9974 118.156 51.4766C118.661 52.1693 119.372 52.5156 120.288 52.5156C121.21 52.5156 121.924 52.1693 122.429 51.4766C122.768 51.013 122.937 50.2552 122.937 49.2031V41.9375H124.757V49.7031C124.757 50.974 124.361 52.0208 123.57 52.8438C122.679 53.7604 121.585 54.2188 120.288 54.2188C118.992 54.2188 117.9 53.7604 117.015 52.8438C116.223 52.0208 115.828 50.974 115.828 49.7031V41.9375H117.648ZM130.499 47.6953L127.179 41.9375H129.249L131.554 46.0234L133.976 41.9375H136.062L132.585 47.6953L136.233 54H134.194L131.523 49.3828L128.773 54H126.71L130.499 47.6953ZM143.444 54V41.9375H145.975C147.189 41.9375 148.147 42.0573 148.85 42.2969C149.605 42.5312 150.29 42.9297 150.905 43.4922C152.149 44.6276 152.772 46.1198 152.772 47.9688C152.772 49.8229 152.123 51.3229 150.827 52.4688C150.176 53.0417 149.493 53.4401 148.78 53.6641C148.113 53.888 147.168 54 145.944 54H143.444ZM145.264 52.2891H146.084C146.902 52.2891 147.582 52.2031 148.123 52.0312C148.665 51.849 149.155 51.5599 149.592 51.1641C150.488 50.3464 150.936 49.2812 150.936 47.9688C150.936 46.6458 150.493 45.5729 149.608 44.75C148.811 44.0156 147.636 43.6484 146.084 43.6484H145.264V52.2891ZM161.982 50.6094H156.529C156.576 51.2344 156.779 51.7318 157.139 52.1016C157.498 52.4661 157.959 52.6484 158.522 52.6484C158.959 52.6484 159.321 52.5443 159.607 52.3359C159.889 52.1276 160.209 51.7422 160.568 51.1797L162.053 52.0078C161.824 52.3984 161.581 52.7344 161.326 53.0156C161.071 53.2917 160.798 53.5208 160.506 53.7031C160.214 53.8802 159.899 54.0104 159.561 54.0938C159.222 54.1771 158.855 54.2188 158.459 54.2188C157.324 54.2188 156.412 53.8542 155.725 53.125C155.037 52.3906 154.693 51.4167 154.693 50.2031C154.693 49 155.027 48.026 155.693 47.2812C156.365 46.5469 157.256 46.1797 158.365 46.1797C159.485 46.1797 160.371 46.5365 161.022 47.25C161.667 47.9583 161.99 48.9401 161.99 50.1953L161.982 50.6094ZM160.178 49.1719C159.933 48.2344 159.342 47.7656 158.404 47.7656C158.191 47.7656 157.99 47.7995 157.803 47.8672C157.615 47.9297 157.443 48.0234 157.287 48.1484C157.136 48.2682 157.006 48.4141 156.897 48.5859C156.787 48.7578 156.704 48.9531 156.647 49.1719H160.178ZM168.654 47.6875L167.201 48.4609C166.972 47.9922 166.688 47.7578 166.349 47.7578C166.188 47.7578 166.05 47.8125 165.935 47.9219C165.821 48.026 165.763 48.1615 165.763 48.3281C165.763 48.6198 166.102 48.9089 166.779 49.1953C167.711 49.5964 168.339 49.9661 168.662 50.3047C168.985 50.6432 169.146 51.099 169.146 51.6719C169.146 52.4062 168.875 53.0208 168.334 53.5156C167.808 53.9844 167.172 54.2188 166.428 54.2188C165.151 54.2188 164.248 53.5964 163.717 52.3516L165.217 51.6562C165.425 52.0208 165.584 52.2526 165.693 52.3516C165.907 52.5495 166.162 52.6484 166.459 52.6484C167.053 52.6484 167.349 52.3776 167.349 51.8359C167.349 51.5234 167.12 51.2318 166.662 50.9609C166.485 50.8724 166.308 50.7865 166.131 50.7031C165.954 50.6198 165.774 50.5339 165.592 50.4453C165.081 50.1953 164.722 49.9453 164.513 49.6953C164.248 49.3776 164.115 48.9688 164.115 48.4688C164.115 47.8073 164.342 47.2604 164.795 46.8281C165.258 46.3958 165.821 46.1797 166.482 46.1797C167.456 46.1797 168.18 46.6823 168.654 47.6875ZM172.81 46.3906V54H171.052V46.3906H172.81ZM170.787 43.2266C170.787 42.9193 170.899 42.6536 171.122 42.4297C171.346 42.2057 171.615 42.0938 171.927 42.0938C172.245 42.0938 172.516 42.2057 172.74 42.4297C172.964 42.6484 173.076 42.9167 173.076 43.2344C173.076 43.5521 172.964 43.8229 172.74 44.0469C172.521 44.2708 172.253 44.3828 171.935 44.3828C171.617 44.3828 171.346 44.2708 171.122 44.0469C170.899 43.8229 170.787 43.5495 170.787 43.2266ZM182.716 53.8203C182.716 54.1797 182.703 54.4948 182.677 54.7656C182.656 55.0417 182.625 55.2839 182.583 55.4922C182.458 56.0651 182.213 56.5573 181.849 56.9688C181.161 57.7604 180.216 58.1562 179.013 58.1562C177.997 58.1562 177.161 57.8828 176.505 57.3359C175.828 56.7734 175.437 55.9948 175.333 55H177.099C177.166 55.375 177.278 55.6641 177.435 55.8672C177.799 56.3411 178.331 56.5781 179.028 56.5781C180.315 56.5781 180.958 55.7891 180.958 54.2109V53.1484C180.26 53.862 179.456 54.2188 178.544 54.2188C177.508 54.2188 176.659 53.8438 175.997 53.0938C175.331 52.3333 174.997 51.3828 174.997 50.2422C174.997 49.1328 175.307 48.1901 175.927 47.4141C176.594 46.5911 177.474 46.1797 178.568 46.1797C179.526 46.1797 180.323 46.5365 180.958 47.25V46.3906H182.716V53.8203ZM181.028 50.2109C181.028 49.4714 180.831 48.8802 180.435 48.4375C180.034 47.9844 179.521 47.7578 178.896 47.7578C178.229 47.7578 177.703 48.0052 177.318 48.5C176.969 48.9427 176.794 49.5156 176.794 50.2188C176.794 50.9115 176.969 51.4792 177.318 51.9219C177.698 52.4062 178.224 52.6484 178.896 52.6484C179.568 52.6484 180.099 52.4036 180.489 51.9141C180.849 51.4714 181.028 50.9036 181.028 50.2109ZM185.255 46.3906H187.02V47.0938C187.635 46.4844 188.328 46.1797 189.098 46.1797C189.984 46.1797 190.674 46.4583 191.169 47.0156C191.596 47.4896 191.809 48.263 191.809 49.3359V54H190.044V49.75C190.044 49 189.94 48.4818 189.731 48.1953C189.528 47.9036 189.158 47.7578 188.622 47.7578C188.039 47.7578 187.624 47.9505 187.38 48.3359C187.14 48.7161 187.02 49.3802 187.02 50.3281V54H185.255V46.3906ZM201.286 50.6094H195.833C195.879 51.2344 196.083 51.7318 196.442 52.1016C196.801 52.4661 197.262 52.6484 197.825 52.6484C198.262 52.6484 198.624 52.5443 198.911 52.3359C199.192 52.1276 199.512 51.7422 199.872 51.1797L201.356 52.0078C201.127 52.3984 200.885 52.7344 200.629 53.0156C200.374 53.2917 200.101 53.5208 199.809 53.7031C199.517 53.8802 199.202 54.0104 198.864 54.0938C198.525 54.1771 198.158 54.2188 197.762 54.2188C196.627 54.2188 195.715 53.8542 195.028 53.125C194.34 52.3906 193.997 51.4167 193.997 50.2031C193.997 49 194.33 48.026 194.997 47.2812C195.668 46.5469 196.559 46.1797 197.668 46.1797C198.788 46.1797 199.674 46.5365 200.325 47.25C200.971 47.9583 201.293 48.9401 201.293 50.1953L201.286 50.6094ZM199.481 49.1719C199.236 48.2344 198.645 47.7656 197.708 47.7656C197.494 47.7656 197.293 47.7995 197.106 47.8672C196.918 47.9297 196.747 48.0234 196.59 48.1484C196.439 48.2682 196.309 48.4141 196.2 48.5859C196.09 48.7578 196.007 48.9531 195.95 49.1719H199.481ZM203.535 46.3906H205.293V47.0703C205.616 46.7318 205.902 46.5 206.152 46.375C206.408 46.2448 206.71 46.1797 207.059 46.1797C207.522 46.1797 208.007 46.3307 208.512 46.6328L207.707 48.2422C207.374 48.0026 207.048 47.8828 206.731 47.8828C205.772 47.8828 205.293 48.6068 205.293 50.0547V54H203.535V46.3906Z" fill="#5C5C5C"/>
<path d="M54.0444 34V11.3828L42.0912 34H33.7475L21.7944 11.3828V34H13.0991V1.79688H24.9116L37.9194 26.1719L50.9272 1.79688H62.6928V34H54.0444ZM82.4262 34H73.7309V1.79688H95.5278C97.8716 1.79688 99.8559 2.03906 101.481 2.52344C103.122 3.00781 104.45 3.69531 105.465 4.58594C106.497 5.47656 107.239 6.55469 107.692 7.82031C108.161 9.07031 108.395 10.4688 108.395 12.0156C108.395 13.375 108.2 14.5625 107.809 15.5781C107.434 16.5938 106.918 17.4688 106.262 18.2031C105.622 18.9219 104.872 19.5312 104.012 20.0312C103.153 20.5312 102.247 20.9453 101.293 21.2734L111.84 34H101.668L91.9184 22.1406H82.4262V34ZM99.6059 11.9688C99.6059 11.3438 99.52 10.8125 99.3481 10.375C99.1919 9.9375 98.9106 9.58594 98.5044 9.32031C98.0981 9.03906 97.5512 8.83594 96.8637 8.71094C96.1919 8.58594 95.3481 8.52344 94.3325 8.52344H82.4262V15.4141H94.3325C95.3481 15.4141 96.1919 15.3516 96.8637 15.2266C97.5512 15.1016 98.0981 14.9062 98.5044 14.6406C98.9106 14.3594 99.1919 14 99.3481 13.5625C99.52 13.125 99.6059 12.5938 99.6059 11.9688ZM149.855 34V20.5703H127.73V34H119.035V1.79688H127.73V13.5156H149.855V1.79688H158.55V34H149.855ZM209.034 17.875C209.034 19.9375 208.807 21.7734 208.354 23.3828C207.901 24.9766 207.26 26.3672 206.432 27.5547C205.62 28.7422 204.635 29.75 203.479 30.5781C202.338 31.4062 201.065 32.0703 199.659 32.5703C198.253 33.0703 196.737 33.4375 195.112 33.6719C193.487 33.8906 191.792 34 190.026 34H169.588V1.79688H189.979C191.745 1.79688 193.44 1.91406 195.065 2.14844C196.69 2.36719 198.206 2.72656 199.612 3.22656C201.034 3.72656 202.323 4.39063 203.479 5.21875C204.635 6.03125 205.62 7.03906 206.432 8.24219C207.26 9.42969 207.901 10.8203 208.354 12.4141C208.807 14.0078 209.034 15.8281 209.034 17.875ZM200.268 17.875C200.268 16.3281 200.065 14.9844 199.659 13.8438C199.268 12.7031 198.628 11.7656 197.737 11.0312C196.862 10.2812 195.713 9.72656 194.292 9.36719C192.87 8.99219 191.135 8.80469 189.088 8.80469H178.284V26.9922H189.088C191.135 26.9922 192.87 26.8125 194.292 26.4531C195.713 26.0781 196.862 25.5156 197.737 24.7656C198.628 24 199.268 23.0469 199.659 21.9062C200.065 20.7656 200.268 19.4219 200.268 17.875Z" fill="black"/>
</svg>
