<svg width="192" height="82" viewBox="0 0 192 82" fill="none" xmlns="http://www.w3.org/2000/svg">
<circle cx="163.812" cy="37.1743" r="26.355" stroke="white" stroke-width="3.66433"/>
<path d="M165.008 20.4755C164.348 19.815 163.277 19.815 162.617 20.4755L151.854 31.2384C151.193 31.8989 151.193 32.9697 151.854 33.6302C152.514 34.2906 153.585 34.2906 154.245 33.6302L163.812 24.0631L173.38 33.6302C174.04 34.2906 175.111 34.2906 175.771 33.6302C176.432 32.9697 176.432 31.8989 175.771 31.2384L165.008 20.4755ZM165.504 55.496V21.6714H162.121V55.496H165.504Z" fill="white"/>
<path d="M10.0918 22.3853V26.124H15.3207C14.7717 27.8757 13.2292 28.9476 10.1964 28.9476C7.08519 28.9476 4.65374 27.3528 4.65374 23.7187C4.65374 20.0846 7.08519 18.4636 10.1964 18.4636C12.7063 18.4636 14.2488 19.1695 15.007 20.5552H19.3732C18.6673 17.0518 14.9547 14.4112 10.1964 14.4112C4.94133 14.4112 0.705904 17.7054 0.705904 23.7187C0.705904 29.8365 4.94133 33 10.1964 33C12.8893 33 14.641 31.6666 15.2946 30.0195H15.5038V32.8693H19.4777V22.3853H10.0918ZM28.8289 18.0714C24.3843 18.0714 20.6718 20.5029 20.6718 25.5488C20.6718 30.6208 24.3843 33 28.8289 33C33.2997 33 37.0122 30.6993 37.0122 25.5488C37.0122 20.4506 33.2997 18.0714 28.8289 18.0714ZM28.8289 29.392C26.3452 29.392 24.5674 28.294 24.5674 25.5488C24.5674 22.7775 26.3452 21.7055 28.8289 21.7055C31.3388 21.7055 33.1166 22.8297 33.1166 25.5488C33.1166 28.1894 31.3388 29.392 28.8289 29.392ZM52.8789 21.7317H57.6372V18.3852H52.8789V14.1497H48.8788V18.3852H46.9441V21.7317H48.8788V27.6142C48.8788 29.7319 48.8788 33 52.8789 33C56.8529 33 57.6372 32.7386 57.6372 32.7386V28.8692C53.8201 29.0783 52.8789 29.3659 52.8789 27.2482V26.9345V21.7317ZM66.1565 18.0714C61.7119 18.0714 57.9994 20.5029 57.9994 25.5488C57.9994 30.6208 61.7119 33 66.1565 33C70.6272 33 74.3397 30.6993 74.3397 25.5488C74.3397 20.4506 70.6272 18.0714 66.1565 18.0714ZM66.1565 29.392C63.6727 29.392 61.8949 28.294 61.8949 25.5488C61.8949 22.7775 63.6727 21.7055 66.1565 21.7055C68.6664 21.7055 70.4442 22.8297 70.4442 25.5488C70.4442 28.1894 68.6664 29.392 66.1565 29.392ZM90.2065 21.7317H94.9648V18.3852H90.2065V14.1497H86.2063V18.3852H84.2716V21.7317H86.2063V27.6142C86.2063 29.7319 86.2063 33 90.2065 33C94.1804 33 94.9648 32.7386 94.9648 32.7386V28.8692C91.1477 29.0783 90.2065 29.3659 90.2065 27.2482V26.9345V21.7317ZM105.426 18.3329C102.811 18.3329 101.217 19.1956 100.275 20.5029H100.092V14.1236H96.1184V33H100.092V25.941C100.092 23.954 100.851 21.7578 104.276 21.7578C108.093 21.7578 108.093 24.5291 108.093 25.6795V33H112.04V25.6795C112.04 23.5357 111.648 18.3329 105.426 18.3329ZM128.653 26.5946H128.81C129.019 24.5814 128.758 21.4964 125.934 19.5617V19.5878C124.705 18.725 123.032 18.2021 120.967 18.2021C116.025 18.2021 113.097 20.8166 113.097 25.6011C113.097 30.4901 115.947 33 120.967 33C125.777 33 128.339 31.0653 128.732 27.9018H124.888C124.522 28.8692 123.346 29.5228 120.967 29.5228C118.404 29.5228 117.228 28.5554 116.94 26.5946H128.653ZM120.967 21.6794C123.79 21.6794 124.522 22.882 124.836 23.9801H117.097C117.568 22.4899 118.77 21.6794 120.967 21.6794ZM0.705904 45.3329H7.60808V60H11.5821V45.3329H18.5104V41.6988H0.705904V45.3329ZM25.2034 45.0714C20.7588 45.0714 17.0463 47.5029 17.0463 52.5488C17.0463 57.6208 20.7588 60 25.2034 60C29.6741 60 33.3867 57.6993 33.3867 52.5488C33.3867 47.4506 29.6741 45.0714 25.2034 45.0714ZM25.2034 56.392C22.7197 56.392 20.9418 55.294 20.9418 52.5488C20.9418 49.7775 22.7197 48.7055 25.2034 48.7055C27.7133 48.7055 29.4911 49.8297 29.4911 52.5488C29.4911 55.1894 27.7133 56.392 25.2034 56.392ZM44.1045 45.359C41.3855 45.359 39.7122 46.2218 38.7187 47.5029H38.5096V45.359H34.5356V65.5949H38.5096V57.9869H38.6926C39.6861 59.268 41.3593 60.0523 44.1045 60.0523C50.2747 60.0523 50.9544 54.6665 50.9544 52.7057C50.9544 50.5618 50.3008 45.359 44.1045 45.359ZM42.9542 56.6273C39.5031 56.6273 38.7972 54.9279 38.7972 52.7057C38.7972 50.7187 39.5031 48.784 42.9542 48.784C46.7451 48.784 47.1634 51.5553 47.1634 52.7057C47.1634 53.7514 46.7451 56.6273 42.9542 56.6273Z" fill="white"/>
</svg>
