<svg width="29" height="23" viewBox="0 0 29 23" fill="none" xmlns="http://www.w3.org/2000/svg">
<path fill-rule="evenodd" clip-rule="evenodd" d="M14.0812 6.11836L14.144 7.11317L13.0963 6.99136C9.28267 6.52441 5.95096 4.94082 3.12216 2.28122L1.73919 0.961565L1.38297 1.93608C0.628623 4.10843 1.11057 6.40259 2.68212 7.94557C3.52029 8.79827 3.3317 8.92008 1.88587 8.41253C1.38297 8.25011 0.942934 8.12829 0.901026 8.1892C0.754348 8.33132 1.25725 10.1788 1.65537 10.9097C2.20018 11.9248 3.31075 12.9196 4.52609 13.5084L5.55284 13.9754L4.3375 13.9957C3.16407 13.9957 3.12216 14.016 3.24789 14.4423C3.66697 15.762 5.32234 17.1628 7.1663 17.7719L8.46546 18.1983L7.33393 18.8479C5.65761 19.7818 3.68792 20.3097 1.71824 20.3503C0.775302 20.3706 0 20.4518 0 20.5127C0 20.7157 2.5564 21.8527 4.04414 22.2993C8.50736 23.619 13.8088 23.0505 17.79 20.797C20.6188 19.1931 23.4476 16.0056 24.7677 12.9196C25.4802 11.2752 26.1926 8.27041 26.1926 6.82894C26.1926 5.89503 26.2555 5.77322 27.4289 4.65659C28.1204 4.00692 28.77 3.29633 28.8957 3.09331C29.1052 2.70757 29.0843 2.70757 28.0156 3.05271C26.2345 3.66178 25.9831 3.58057 26.8632 2.66696C27.5127 2.01729 28.288 0.839751 28.288 0.494611C28.288 0.433704 27.9737 0.535215 27.6175 0.717937C27.2403 0.92096 26.4022 1.2255 25.7735 1.40822L24.642 1.75336L23.6153 1.08338C23.0495 0.717937 22.2533 0.31189 21.8342 0.190076C20.7655 -0.0941572 19.1311 -0.0535525 18.1672 0.271285C15.5479 1.18489 13.8926 3.53996 14.0812 6.11836Z" fill="black"/>
</svg>
