<svg width="1155" height="95" viewBox="0 0 1155 95" fill="none" xmlns="http://www.w3.org/2000/svg">
<path d="M202.324 38.5589C202.324 43.7026 202.527 52.1625 191.631 52.1625C180.87 52.1625 180.599 45.6653 180.599 38.5589V14.1941H170.311V39.7094C170.311 47.0189 170.244 61.5701 191.698 61.5701C213.085 61.5701 213.085 46.2067 213.085 39.7771C213.085 33.2798 213.085 14.1941 213.085 14.1941H202.324C202.324 14.1941 202.324 33.4152 202.324 38.5589ZM253.526 48.2371H252.307L231.597 14.2617H230.65V14.1941H216.775V61.5701H227.063V27.5947H228.213L248.991 61.5701H263.813V14.1941H253.526V48.2371ZM287.907 14.1941H267.535V61.5701C269.769 61.5701 285.403 61.5701 287.907 61.5701C307.67 61.5701 311.257 47.0865 311.257 37.9498C311.257 28.813 307.94 14.1941 287.907 14.1941ZM287.907 52.2302C283.169 52.2302 279.65 52.2302 277.823 52.2302V23.6016C277.823 23.6016 283.576 23.6016 287.907 23.6016C298.533 23.6016 300.563 32.603 300.563 37.9498C300.563 43.0257 298.465 52.2302 287.907 52.2302ZM314.396 14.1941V61.5701H324.683H353.312V52.1625H324.683V42.552H353.312V33.2798H324.683V23.5339H353.312V14.1941H314.396ZM398.575 30.0312C398.575 14.1941 385.919 14.1941 380.234 14.1941C377.459 14.1941 369.947 14.2617 367.443 14.2617V14.1941H357.155V61.5701H367.443V45.8006C369.541 45.8006 376.579 45.8006 378.339 45.8006C378.948 45.8006 379.828 45.8006 380.843 45.8006L388.559 61.5701H399.726L390.657 43.4318C394.921 41.1984 398.575 38.2205 398.575 30.0312ZM379.422 36.5961C378.542 36.5961 369.676 36.5961 367.443 36.5961V23.4662C370.15 23.4662 377.73 23.4662 379.625 23.4662C382.806 23.4662 389.033 23.4662 389.033 30.0312C389.033 36.6638 382.4 36.5961 379.422 36.5961ZM462.18 43.5672C460.894 48.2371 457.443 51.0797 449.524 51.0797C441.403 51.0797 435.785 46.9512 435.785 37.5437C435.785 28.1362 441.403 23.94 449.524 23.94C457.172 23.94 460.691 26.3765 462.18 31.5201H472.874C472.197 21.3681 462.722 13.4496 449.524 13.4496C435.921 13.4496 425.565 21.9773 425.565 37.5437C425.565 53.3808 435.921 61.5701 449.524 61.5701C462.722 61.5701 471.926 54.1253 472.874 43.5672H462.18ZM499.565 13.4496C485.758 13.4496 475.268 21.9773 475.268 37.5437C475.268 53.3808 485.758 61.5701 499.565 61.5701C513.372 61.5701 523.862 53.1101 523.862 37.5437C523.862 21.9773 513.372 13.4496 499.565 13.4496ZM499.565 51.0797C491.376 51.0797 485.352 46.9512 485.352 37.5437C485.352 28.1362 491.376 23.94 499.565 23.94C507.754 23.94 513.778 28.2715 513.778 37.5437C513.778 46.6128 507.754 51.0797 499.565 51.0797ZM564.232 48.2371H563.014L542.304 14.2617H541.356V14.1941H527.482V61.5701H537.769V27.5947H538.92L559.698 61.5701H574.52V14.1941H564.232V48.2371ZM600.509 32.8737C592.59 31.5878 589.815 30.6403 589.815 28.1362C589.815 25.835 591.643 22.9925 599.629 22.9925C609.443 22.9925 610.864 27.8654 610.864 31.1141C614.519 31.1141 621.693 31.1141 621.693 31.1141C621.693 23.94 618.038 13.6526 599.629 13.6526C584.13 13.6526 579.19 21.3681 579.19 28.0685C579.19 36.7315 585.551 39.6418 599.764 41.7398C609.036 43.0934 612.285 43.7026 612.285 46.8835C612.285 50.5382 609.036 52.3656 601.253 52.3656C595.094 52.3656 588.8 51.215 588.8 44.1086C582.98 44.1086 580.34 44.1086 578.242 44.1086C578.242 48.6432 578.174 61.5701 601.524 61.5701C615.398 61.5701 623.249 58.6598 623.249 46.8835C623.249 36.1901 611.135 34.6334 600.509 32.8737ZM623.384 23.6016H641.252V61.5701H651.539V23.6016H669.474V14.1941H623.384V23.6016ZM714.107 30.0312C714.107 14.1941 701.451 14.1941 695.766 14.1941C692.991 14.1941 685.478 14.2617 682.974 14.2617V14.1941H672.687V61.5701H682.974V45.8006C685.072 45.8006 692.111 45.8006 693.871 45.8006C694.48 45.8006 695.36 45.8006 696.375 45.8006L704.09 61.5701H715.258L706.188 43.4318C710.452 41.1984 714.107 38.2205 714.107 30.0312ZM694.954 36.5961C694.074 36.5961 685.208 36.5961 682.974 36.5961V23.4662C685.681 23.4662 693.262 23.4662 695.157 23.4662C698.338 23.4662 704.564 23.4662 704.564 30.0312C704.564 36.6638 697.931 36.5961 694.954 36.5961ZM749.779 38.5589C749.779 43.7026 749.982 52.1625 739.085 52.1625C728.324 52.1625 728.053 45.6653 728.053 38.5589V14.1941H717.766V39.7094C717.766 47.0189 717.698 61.5701 739.153 61.5701C760.54 61.5701 760.54 46.2067 760.54 39.7771C760.54 33.2798 760.54 14.1941 760.54 14.1941H749.779C749.779 14.1941 749.779 33.4152 749.779 38.5589ZM800.845 43.5672C799.559 48.2371 796.107 51.0797 788.189 51.0797C780.067 51.0797 774.45 46.9512 774.45 37.5437C774.45 28.1362 780.067 23.94 788.189 23.94C795.836 23.94 799.356 26.3765 800.845 31.5201H811.538C810.861 21.3681 801.386 13.4496 788.189 13.4496C774.585 13.4496 764.23 21.9773 764.23 37.5437C764.23 53.3808 774.585 61.5701 788.189 61.5701C801.386 61.5701 810.591 54.1253 811.538 43.5672H800.845ZM812.214 23.6016H830.081V61.5701H840.369V23.6016H858.304V14.1941H812.214V23.6016ZM872.27 61.5701V14.1941H861.983V61.5701H872.27ZM899.3 13.4496C885.493 13.4496 875.003 21.9773 875.003 37.5437C875.003 53.3808 885.493 61.5701 899.3 61.5701C913.107 61.5701 923.597 53.1101 923.597 37.5437C923.597 21.9773 913.107 13.4496 899.3 13.4496ZM899.3 51.0797C891.111 51.0797 885.087 46.9512 885.087 37.5437C885.087 28.1362 891.111 23.94 899.3 23.94C907.489 23.94 913.513 28.2715 913.513 37.5437C913.513 46.6128 907.489 51.0797 899.3 51.0797ZM963.967 48.2371H962.749L942.039 14.2617H941.091V14.1941H927.217V61.5701H937.504V27.5947H938.655L959.433 61.5701H974.255V14.1941H963.967V48.2371Z" fill="white"/>
<path d="M92.4333 40.5958C74.3027 42.0436 63.8858 43.3756 57.4906 47.7768C49.9747 52.9309 48.1946 62.3705 46.2167 81.2495C44.1728 61.6755 42.3268 52.2939 34.0856 47.2556C27.6904 43.3176 17.3395 42.0436 0 40.6537C18.0647 39.2059 28.5475 37.874 34.8768 33.5306C42.4587 28.3186 44.2388 18.937 46.2167 0C48.0627 17.4313 49.7109 26.755 55.8424 32.1408C61.9738 37.5265 72.6544 39.0322 92.4333 40.5958Z" fill="white"/>
<path d="M1154.63 40.5958C1136.5 42.0436 1126.09 43.3756 1119.69 47.7768C1112.17 52.9309 1110.39 62.3705 1108.42 81.2495C1106.37 61.6755 1104.53 52.2939 1096.28 47.2556C1089.89 43.3176 1079.54 42.0436 1062.2 40.6537C1080.26 39.2059 1090.75 37.874 1097.08 33.5306C1104.66 28.3186 1106.44 18.937 1108.42 0C1110.26 17.4313 1111.91 26.755 1118.04 32.1408C1124.17 37.5265 1134.85 39.0322 1154.63 40.5958Z" fill="white"/>
</svg>
